<?xml version="1.0" standalone="no"?>
<!DOCTYPE svg PUBLIC "-//W3C//DTD SVG 20010904//EN"
 "http://www.w3.org/TR/2001/REC-SVG-20010904/DTD/svg10.dtd">
<svg version="1.0" xmlns="http://www.w3.org/2000/svg"
 width="900.000000pt" height="900.000000pt" viewBox="0 0 900.000000 900.000000"
 preserveAspectRatio="xMidYMid meet">
<metadata>
Created by potrace 1.11, written by Peter Selinger 2001-2013
</metadata>
<g transform="translate(0.000000,900.000000) scale(0.100000,-0.100000)"
fill="#000000" stroke="none">
<path d="M0 8325 l0 -675 93 -1 c50 -1 106 -1 122 -1 17 0 82 3 145 6 l116 7
18 -42 c16 -36 19 -72 21 -249 2 -134 11 -282 26 -419 22 -207 22 -214 6 -314
-25 -145 -23 -316 4 -398 27 -83 46 -124 82 -178 40 -59 70 -139 62 -168 -4
-18 -31 -36 -113 -76 -59 -29 -127 -61 -152 -71 -25 -10 -58 -24 -75 -32 -16
-7 -102 -42 -190 -77 l-160 -64 -3 -2787 -2 -2786 1300 0 c779 0 1300 4 1300
9 0 5 -18 67 -41 138 -83 265 -110 349 -120 388 -6 22 -15 49 -20 60 -7 18
-29 127 -43 215 -3 19 -6 67 -7 105 0 39 -5 85 -11 104 -11 34 2 149 24 219
10 32 10 33 35 17 13 -9 33 -18 44 -20 22 -4 20 -15 24 208 1 75 -2 137 -6
137 -4 0 -11 10 -14 23 -26 93 -80 212 -251 562 -43 88 -78 163 -76 168 1 4
-2 7 -6 7 -10 0 -37 50 -34 63 1 4 -2 7 -7 7 -13 0 -141 246 -141 271 0 6 -9
26 -19 43 -10 17 -31 69 -46 116 -15 47 -33 99 -40 115 -7 17 -17 57 -23 89
-7 32 -18 67 -27 76 -16 18 -21 75 -6 84 20 13 40 -7 46 -45 4 -21 11 -37 16
-33 5 3 9 0 9 -6 0 -17 28 -42 32 -29 2 6 22 -6 44 -25 28 -25 45 -50 54 -80
8 -30 28 -59 65 -95 29 -28 60 -67 69 -85 10 -21 26 -36 41 -40 14 -4 47 -28
73 -54 26 -26 61 -59 77 -73 17 -14 46 -44 66 -65 41 -45 64 -64 77 -64 13 0
43 -36 36 -42 -6 -7 100 -72 135 -83 32 -10 91 -67 91 -87 0 -21 29 -38 67
-38 39 0 79 -28 198 -139 11 -10 28 -31 39 -46 17 -24 22 -26 61 -21 39 6 46
4 98 -39 31 -25 65 -45 76 -45 11 0 32 -15 48 -34 32 -38 88 -60 128 -50 19 5
32 1 48 -14 12 -11 38 -22 58 -26 20 -3 45 -16 55 -27 26 -29 70 -50 88 -43 9
4 32 -10 60 -38 24 -23 57 -53 73 -65 l28 -21 -24 -21 c-17 -14 -19 -21 -9
-21 8 0 18 3 21 7 14 13 106 5 136 -13 31 -18 40 -34 21 -34 -5 0 -10 -10 -10
-23 0 -35 -46 -63 -99 -61 -56 3 -87 25 -118 83 -4 7 -64 -41 -74 -60 -9 -17
-7 -21 10 -26 11 -3 23 -14 26 -24 4 -10 10 -19 15 -19 4 0 15 -12 25 -26 9
-15 12 -23 6 -20 -6 4 -11 2 -11 -3 0 -6 6 -11 14 -11 8 0 23 -15 35 -32 11
-18 21 -26 21 -18 0 12 2 13 9 1 5 -7 6 -22 3 -34 -3 -12 -1 -18 5 -14 14 9
11 -25 -2 -35 -6 -5 -5 -8 2 -8 19 0 33 -34 22 -51 -8 -12 -10 -12 -18 1 -7
10 -8 -2 -5 -36 3 -28 1 -68 -5 -90 -7 -21 -14 -80 -17 -130 -5 -75 -3 -94 10
-107 9 -8 20 -27 26 -41 14 -37 27 -32 41 14 7 24 15 36 19 29 6 -8 9 -8 14 0
4 6 5 15 2 20 -3 5 4 11 15 14 12 3 18 10 15 15 -3 5 6 10 19 10 14 0 25 -6
25 -14 0 -7 7 -17 16 -22 21 -12 27 -113 9 -166 -7 -23 -19 -68 -25 -101 -7
-33 -17 -65 -22 -72 -5 -7 -7 -16 -4 -21 3 -6 -1 -15 -10 -22 -12 -11 -12 -15
-2 -21 9 -6 8 -9 -7 -10 -11 -1 -26 -1 -32 0 -18 2 -16 -10 4 -39 16 -25 16
-25 -4 -7 -26 22 -38 9 -48 -51 -4 -24 -16 -51 -26 -60 -10 -9 -19 -26 -19
-39 0 -12 -6 -28 -14 -35 -18 -18 -48 -120 -32 -111 6 4 3 -6 -8 -21 -10 -16
-13 -26 -7 -22 5 4 4 -6 -4 -21 l-15 -28 126 -3 c70 -1 128 -1 130 0 1 2 -2
25 -8 52 -8 39 -7 64 7 124 10 41 26 83 37 94 10 10 18 27 18 38 0 11 7 20 15
20 8 0 19 9 25 21 7 11 14 18 17 15 3 -3 15 1 27 9 27 20 56 19 56 -1 0 -10 6
-14 15 -10 10 4 15 -2 17 -17 4 -56 6 -74 11 -97 17 -76 25 -125 19 -127 -4
-2 -5 -30 -4 -63 l4 -60 145 0 c132 0 144 1 141 18 -10 43 65 137 100 125 28
-10 82 -66 103 -106 l19 -37 141 0 c131 0 141 1 134 18 -35 83 -93 292 -120
432 -27 137 -31 142 -76 94 -22 -23 -29 -25 -84 -20 -172 14 -258 35 -269 63
-3 8 -9 12 -14 10 -4 -3 -6 9 -5 26 2 18 5 55 7 82 2 28 7 61 10 75 7 28 18
170 17 212 0 15 6 39 14 54 7 15 11 32 9 39 -3 7 -1 16 5 20 6 3 11 15 11 26
0 10 4 19 9 19 5 0 12 12 15 26 13 51 74 131 150 197 42 37 81 67 86 67 26 0
5 31 -40 60 -28 18 -59 43 -69 56 -19 24 -19 25 0 74 10 28 16 50 13 50 -4 0
-1 7 7 16 7 8 21 13 31 11 10 -3 21 -1 24 4 3 6 15 7 27 3 43 -14 95 -13 107
2 7 8 18 14 24 14 7 0 31 9 54 20 22 11 49 20 59 20 10 0 28 16 41 35 24 38
39 44 48 20 17 -44 108 12 112 70 1 17 9 35 17 41 21 16 19 27 -5 21 -13 -3
-24 1 -30 14 -16 30 -34 23 -86 -34 -52 -55 -82 -65 -94 -32 -7 18 -8 19 -15
2 -4 -9 -4 -28 -1 -41 13 -52 -21 -77 -42 -31 -6 14 -16 25 -22 25 -18 0 -11
31 15 62 32 38 31 45 -5 50 -16 3 -30 1 -30 -4 0 -4 -7 -8 -15 -8 -8 0 -15 -8
-15 -18 0 -61 -64 -64 -75 -4 -4 21 -13 44 -21 53 -8 9 -16 26 -17 38 -1 12
-6 20 -12 18 -5 -2 -15 3 -21 12 -10 13 -14 10 -28 -17 -9 -18 -21 -30 -27
-27 -5 4 -13 -4 -17 -15 -7 -20 -10 -21 -24 -7 -8 9 -24 45 -34 81 -10 37 -24
66 -31 66 -7 0 -13 5 -13 10 0 6 -4 10 -10 10 -5 0 -10 -17 -10 -37 -1 -34 -2
-36 -14 -20 -12 16 -14 16 -20 1 -3 -8 -6 -30 -6 -48 0 -25 -6 -36 -25 -46
-14 -7 -25 -19 -25 -25 0 -7 -7 -29 -15 -50 -12 -28 -19 -34 -29 -26 -16 13
-27 4 -19 -16 4 -11 2 -14 -8 -11 -8 3 -17 18 -20 34 -4 23 -7 17 -13 -33 -4
-34 -14 -67 -22 -73 -14 -12 -14 -13 3 55 3 13 -5 31 -22 49 -26 28 -32 42
-34 75 -1 8 -7 11 -17 7 -8 -3 -13 -2 -9 3 7 13 -4 38 -19 44 -10 4 -12 -16
-8 -91 l4 -97 -38 50 c-29 38 -40 61 -42 95 -2 25 -12 54 -21 65 -13 15 -16
27 -10 50 30 114 30 116 14 131 -13 14 -15 11 -15 -26 0 -32 -6 -46 -27 -64
-15 -13 -28 -35 -28 -49 -1 -14 -7 -33 -14 -41 -7 -9 -14 -34 -15 -57 -1 -42
-26 -70 -26 -30 0 33 -16 24 -39 -21 -19 -39 -22 -41 -27 -20 -4 13 -14 22
-25 22 -11 0 -22 0 -26 1 -4 0 -9 -4 -11 -10 -2 -6 3 -11 12 -11 9 0 16 -7 16
-15 0 -20 -6 -19 -30 5 -24 24 -28 65 -6 57 9 -4 17 2 21 13 4 11 12 17 21 13
17 -6 17 -2 2 32 -6 14 -17 25 -23 25 -18 0 -16 57 2 64 14 6 13 9 -4 26 -21
19 -22 29 -15 138 1 13 7 20 12 17 5 -3 10 -2 10 4 0 5 -5 13 -10 16 -14 9
-12 38 4 61 13 17 14 16 11 -18 -2 -21 1 -38 7 -38 5 0 9 19 7 43 -3 44 14 97
30 97 6 0 18 16 27 35 9 19 21 35 26 35 5 0 6 5 2 11 -4 8 -9 7 -15 -2 -6 -11
-11 -11 -20 -2 -9 9 -7 17 5 34 17 25 22 74 8 83 -9 5 -34 -20 -52 -53 -15
-29 -33 -27 -24 2 4 12 7 39 6 61 -1 36 1 38 24 33 20 -3 24 -1 19 12 -4 9 -9
29 -12 45 -6 30 -35 66 -54 66 -5 0 -7 -5 -4 -10 4 -6 -1 -22 -10 -36 -9 -13
-14 -28 -11 -33 3 -5 -3 -16 -14 -26 -28 -25 -28 -112 0 -148 19 -24 28 -73
12 -63 -5 3 -7 -8 -4 -23 3 -21 -2 -33 -18 -44 -15 -11 -18 -16 -8 -20 7 -3 1
-5 -14 -4 -22 1 -25 4 -17 18 13 25 12 26 -15 33 -14 3 -26 12 -29 19 -2 6 -3
4 -2 -5 4 -26 -24 -58 -50 -58 -13 0 -27 -4 -30 -10 -3 -5 -13 -10 -22 -10
-11 0 -14 7 -9 27 5 25 4 26 -7 9 -28 -43 -49 -66 -59 -66 -5 0 -7 7 -4 16 5
12 1 14 -15 9 -16 -5 -20 -3 -17 10 1 10 12 23 23 29 29 16 69 46 61 46 -4 0
-2 9 4 20 6 11 16 17 25 14 11 -4 15 1 15 16 0 18 4 21 23 16 17 -4 29 1 45
18 19 23 19 24 2 29 -10 3 -22 1 -27 -3 -4 -5 -25 -13 -46 -18 -28 -8 -39 -8
-43 1 -2 7 -23 12 -47 12 -38 0 -42 -2 -45 -27 -3 -26 -21 -40 -23 -18 -1 6
-2 14 -3 19 -3 24 -16 19 -36 -14 -29 -46 -50 -33 -26 16 12 25 13 35 4 46
-15 18 -28 0 -28 -39 0 -26 -16 -46 -27 -35 -3 3 -6 17 -7 31 0 14 -4 26 -8
26 -5 0 -8 13 -8 29 0 55 -22 130 -37 124 -8 -3 -13 2 -13 16 0 30 -20 26 -80
-14 -57 -38 -75 -44 -66 -19 3 9 6 19 6 24 0 4 13 13 29 20 34 14 71 50 51 50
-8 0 -11 9 -8 25 10 48 -17 37 -66 -27 -16 -21 -32 -36 -36 -33 -11 7 -1 68
12 76 7 4 6 14 -2 29 -6 12 -9 28 -6 35 2 7 -2 19 -10 25 -8 7 -14 23 -14 35
0 16 -6 22 -17 21 -18 -1 -20 6 -8 35 5 13 1 15 -19 12 -24 -5 -25 -3 -21 32
3 20 8 42 12 48 3 6 1 7 -5 3 -6 -4 -20 -26 -31 -50 -26 -60 -40 -66 -34 -14
5 32 3 39 -7 33 -7 -4 -11 -4 -8 1 32 70 49 126 51 174 1 19 9 40 17 46 8 7
15 31 16 55 1 24 4 51 8 61 4 9 0 30 -9 48 -9 18 -14 42 -11 55 3 13 1 27 -5
31 -8 4 -9 25 -5 59 5 41 3 54 -8 58 -8 3 -20 -1 -26 -9 -9 -10 -9 -14 -1 -14
6 0 11 -16 11 -35 0 -35 -12 -46 -26 -23 -10 16 -26 -30 -19 -53 4 -11 2 -19
-4 -19 -6 0 -11 -15 -11 -32 0 -71 -22 -101 -39 -55 -8 20 -10 20 -16 4 -4
-10 -5 -30 -2 -46 4 -17 0 -36 -9 -49 -15 -22 -15 -22 -36 -2 -32 30 -45 24
-14 -6 37 -38 35 -62 -3 -35 -16 12 -34 21 -41 21 -6 0 -10 8 -8 18 8 52 -41
56 -64 4 -11 -22 -16 -27 -12 -12 5 23 6 88 1 114 -1 5 -11 18 -22 27 -19 17
-19 18 -2 37 11 12 17 30 14 44 -4 21 -4 20 -6 -4 -1 -34 -28 -38 -40 -5 -6
14 -5 29 3 42 20 32 25 74 10 86 -14 12 -18 7 -27 -36 -3 -15 -5 -13 -6 8 -1
16 -7 27 -15 27 -9 0 -16 12 -18 28 -2 15 -8 26 -15 25 -9 -2 -10 4 -4 20 5
12 14 21 20 20 12 -3 4 55 -10 72 -4 6 -6 26 -3 44 4 22 2 31 -5 26 -6 -3 -11
1 -11 9 0 8 -9 17 -19 21 -11 3 -25 13 -32 22 -11 13 -10 18 10 34 21 17 21
19 5 19 -30 0 -73 46 -67 70 3 11 9 18 13 15 5 -3 6 -14 3 -25 -4 -14 1 -22
18 -29 26 -9 48 -3 29 9 -7 4 0 10 19 13 35 7 34 27 -4 47 -14 7 -27 21 -30
31 -4 11 -12 15 -25 12 -24 -6 -26 3 -5 23 8 9 15 25 16 37 0 12 1 39 3 60 3
39 -7 48 -22 21 -8 -15 -10 -15 -15 0 -4 10 -1 19 8 22 8 4 15 11 15 17 0 5
-9 2 -19 -7 -18 -16 -18 -20 -5 -52 8 -20 10 -34 4 -34 -5 0 -10 6 -10 13 0 9
-3 8 -9 -2 -14 -22 -22 3 -19 64 2 36 8 60 18 68 13 11 13 10 1 -6 -11 -14
-11 -21 -2 -30 9 -9 14 -9 20 2 11 17 4 39 -18 65 -17 19 -23 69 -7 59 5 -4 7
3 4 14 -3 12 0 20 8 20 9 0 12 -9 9 -26 l-5 -26 11 25 c7 14 20 42 30 63 10
20 16 37 13 37 -4 0 -1 7 6 15 8 10 9 15 1 15 -6 0 -16 -9 -23 -20 -13 -20
-28 -27 -28 -12 0 4 11 19 24 34 14 14 22 28 19 31 -3 3 -15 -5 -27 -18 l-22
-24 0 34 c0 29 4 34 26 37 14 2 24 8 23 15 -2 7 3 10 10 7 7 -2 21 2 32 10 12
10 15 15 7 16 -8 0 -10 5 -6 13 6 9 5 9 -7 0 -13 -11 -15 -9 -15 10 1 12 -4
22 -11 22 -6 0 -15 3 -19 7 -4 5 0 8 9 8 30 0 -14 35 -45 36 -28 1 -46 -25
-33 -45 3 -6 -6 -4 -21 4 -15 7 -34 11 -43 8 -13 -4 -13 -3 -2 5 8 6 22 9 32
7 23 -5 36 14 18 26 -9 6 -10 9 -2 9 6 0 11 9 10 19 0 11 -5 17 -9 15 -5 -3
-6 -10 -3 -15 4 -5 1 -9 -5 -9 -6 0 -10 15 -8 36 2 27 6 34 19 31 14 -4 15 0
6 30 -7 23 -14 30 -21 23 -15 -15 -36 -12 -30 5 4 8 10 12 15 9 5 -3 9 -1 9 4
0 17 -32 23 -49 10 -10 -8 -9 -5 3 10 11 12 16 22 11 22 -4 0 -2 7 5 15 7 8
10 22 6 30 -3 10 1 15 12 15 16 1 16 2 -1 14 -17 13 -16 14 3 19 11 3 18 1 14
-4 -3 -5 0 -9 5 -9 13 0 14 20 3 35 -8 12 -73 14 -66 3 3 -5 0 -8 -5 -8 -14 0
-14 16 -1 41 9 16 7 19 -10 19 -12 0 -19 -4 -15 -9 3 -5 0 -13 -6 -17 -8 -4
-7 -9 2 -15 10 -6 10 -9 2 -9 -16 0 -26 17 -13 25 6 4 8 10 5 15 -3 5 4 14 16
21 22 11 21 12 -12 26 -19 9 -28 17 -21 20 15 6 16 39 2 48 -6 4 -8 16 -4 27
3 11 2 18 -2 15 -5 -3 -7 17 -6 44 2 27 0 49 -5 49 -16 0 -40 -24 -57 -55 -8
-16 -15 -24 -16 -17 0 16 20 55 33 63 12 8 -1 31 -13 24 -5 -3 -11 -2 -13 2
-3 5 8 9 25 10 30 1 51 19 44 38 -2 6 -9 9 -15 7 -8 -1 -9 2 -5 10 13 21 13
39 1 35 -7 -2 -12 -10 -13 -18 -2 -34 -5 -40 -13 -35 -5 3 -12 -1 -15 -10 -3
-8 -10 -13 -15 -9 -6 3 -14 -3 -20 -12 -8 -15 -10 -12 -8 14 1 17 5 29 8 27 4
-2 10 3 13 12 3 8 11 12 17 8 7 -4 9 -3 6 3 -3 5 1 20 10 32 12 19 17 20 25
10 8 -11 9 -10 5 2 -3 9 2 27 10 39 16 22 16 23 -11 16 -19 -5 -28 -2 -32 9
-4 10 -10 12 -18 6 -7 -6 -16 -4 -25 6 -11 12 -10 15 8 20 16 4 20 11 16 30
-5 28 -15 44 -15 24 0 -7 -9 -26 -21 -42 -11 -16 -18 -33 -14 -38 3 -5 0 -13
-6 -17 -14 -8 -29 14 -22 32 9 24 -8 37 -23 17 -12 -15 -13 -15 -8 -1 3 10 -1
18 -13 21 -12 3 -9 5 10 6 31 1 34 8 10 27 -17 13 -17 14 2 7 11 -3 17 -3 13
2 -4 4 -3 14 3 22 8 9 8 13 1 13 -6 0 -14 -4 -17 -10 -3 -5 -11 -10 -17 -10
-6 0 1 11 17 26 32 29 27 44 -7 20 -26 -19 -42 -21 -32 -4 5 8 2 9 -9 5 -10
-3 -17 -2 -17 2 0 5 7 11 15 15 8 3 15 1 15 -4 0 -6 4 -10 9 -10 6 0 8 9 6 20
-2 12 0 18 6 15 5 -4 6 -12 3 -18 -5 -9 -4 -9 5 -1 9 8 8 18 -1 41 -14 31 -32
33 -56 4 -11 -13 -12 -13 -7 -1 4 8 -3 4 -14 -10 -28 -35 -26 -11 3 33 13 19
27 44 31 56 3 12 10 21 15 21 5 0 14 10 21 21 8 15 8 19 0 15 -6 -4 -11 -2
-11 4 0 6 -6 8 -12 4 -10 -5 -10 -4 -1 6 8 9 9 19 3 30 -5 10 -7 28 -5 41 3
17 -2 30 -18 42 -12 10 -17 16 -11 13 7 -3 18 1 25 10 11 14 11 18 -4 29 -18
13 -13 25 10 25 8 0 11 -5 7 -11 -4 -8 0 -8 15 0 25 14 28 23 4 14 -11 -4 -14
-3 -9 6 6 8 2 11 -10 9 -11 -2 -21 -6 -24 -9 -3 -4 -16 -10 -30 -14 -22 -6
-23 -5 -9 6 23 19 34 59 17 60 -7 0 -4 4 7 9 11 4 31 6 45 3 14 -2 34 3 45 11
11 8 15 16 8 16 -6 0 -15 -4 -18 -10 -3 -5 -16 -10 -28 -10 -21 1 -21 1 3 16
14 8 17 13 7 10 -24 -8 -67 3 -67 16 0 6 7 8 15 4 9 -3 15 0 15 10 0 8 8 23
17 32 16 16 15 17 -1 20 -9 2 -23 -1 -29 -7 -8 -6 -18 -6 -27 0 -12 7 -13 11
-2 18 8 4 13 11 13 15 -4 28 1 56 10 56 5 0 7 -6 3 -12 -5 -10 -4 -10 6 -1 14
13 37 7 59 -15 12 -12 12 -13 0 -10 -16 3 -19 -9 -9 -36 6 -18 8 -18 23 5 12
16 17 19 17 8 0 -9 -3 -19 -7 -23 -5 -4 -8 -13 -8 -19 -1 -7 -6 -11 -11 -10
-6 1 -11 -4 -11 -12 0 -8 5 -11 11 -7 6 4 14 7 18 7 4 0 16 8 27 17 17 14 21
15 32 2 6 -8 18 -14 25 -14 8 0 14 -5 14 -11 0 -6 7 -8 16 -5 8 3 12 2 9 -4
-3 -6 -12 -10 -20 -10 -25 0 -27 -20 -3 -29 14 -5 31 -5 43 2 18 9 19 9 6 -6
-12 -16 -8 -22 13 -18 5 1 6 -6 2 -15 -6 -15 -4 -15 10 -3 14 11 18 11 30 -6
8 -10 14 -16 14 -12 0 6 26 -13 55 -40 8 -7 21 -13 31 -13 13 0 14 -3 4 -15
-12 -15 -5 -20 25 -16 6 1 1 -6 -9 -14 -11 -8 -16 -16 -10 -16 5 -1 22 -3 38
-5 16 -2 32 -7 35 -11 3 -4 17 -9 30 -11 20 -2 22 0 11 13 -7 9 -10 18 -6 22
3 3 6 2 6 -4 0 -12 55 -12 66 0 13 13 -17 37 -35 28 -11 -6 -22 -3 -33 8 -16
16 -16 17 2 29 11 7 20 9 20 5 0 -5 13 -8 29 -9 26 -1 28 1 15 13 -16 17 -18
33 -4 33 15 0 32 -40 25 -58 -5 -13 -4 -14 6 -5 8 8 18 9 31 2 20 -11 42 -3
33 11 -3 5 0 21 6 37 l11 28 10 -25 c6 -16 12 -20 16 -13 6 9 47 12 47 3 0 0
24 -3 53 -5 47 -3 52 -2 52 16 0 14 -4 18 -12 12 -36 -22 -63 0 -52 42 5 20 9
24 15 13 4 -7 23 -15 41 -16 31 -2 33 0 33 28 1 19 -4 29 -10 26 -7 -2 -18 0
-26 5 -11 7 -11 9 -1 9 7 0 10 5 7 10 -4 6 -14 9 -23 8 -11 -2 -16 3 -14 15 2
9 -3 17 -10 17 -7 0 -18 8 -24 18 -9 14 -7 17 12 17 12 0 20 -3 17 -7 -2 -5 2
-8 9 -9 34 -1 92 -9 108 -14 35 -11 29 13 -8 31 -27 13 -32 19 -19 22 10 2 20
16 24 33 l5 29 29 -24 c15 -13 49 -34 74 -46 63 -30 165 -25 215 11 87 62 129
132 110 180 -7 15 -10 34 -7 41 2 7 0 21 -5 31 -6 11 -5 17 2 17 6 0 13 -7 16
-15 11 -28 27 -16 21 15 -8 40 12 40 87 1 63 -34 66 -36 148 -113 l60 -58 -20
-35 c-20 -32 -15 -54 8 -40 6 4 9 1 8 -5 -2 -7 25 -12 77 -15 113 -6 134 -9
156 -28 16 -14 17 -20 7 -36 -7 -11 -16 -18 -20 -15 -4 3 -5 -2 -2 -11 4 -11
-5 -29 -27 -51 -18 -19 -29 -34 -24 -34 4 0 -2 -9 -14 -19 -12 -11 -21 -22
-19 -25 2 -3 -4 -13 -12 -23 -8 -10 -15 -27 -15 -37 0 -12 -8 -20 -24 -23 -32
-5 -40 -13 -13 -13 12 0 22 -5 22 -11 0 -5 5 -7 10 -4 5 3 10 1 10 -4 0 -6 8
-11 18 -12 10 0 12 -3 5 -6 -18 -7 -16 -33 5 -56 9 -11 11 -17 5 -13 -7 4 -13
2 -13 -3 0 -6 5 -11 11 -11 6 0 0 -15 -15 -34 -16 -22 -24 -41 -19 -52 4 -11
3 -15 -5 -10 -8 4 -8 -3 -2 -26 7 -21 6 -36 -1 -45 -9 -10 -8 -13 1 -13 8 0
11 -3 8 -6 -4 -3 -15 -1 -25 4 -15 9 -19 7 -19 -9 0 -19 48 -44 61 -31 4 4 6
2 4 -3 -4 -16 12 -45 22 -39 5 3 6 -2 3 -10 -8 -22 -24 -20 -24 3 0 10 -7 22
-16 25 -14 5 -15 4 -5 -8 14 -16 6 -56 -10 -56 -6 0 -7 -5 -3 -12 4 -6 -1 -17
-11 -25 -19 -13 -12 -17 25 -14 11 1 11 -1 -2 -9 -13 -8 -25 -7 -48 5 -27 14
-45 5 -20 -10 6 -3 10 -17 10 -30 0 -18 5 -23 20 -22 11 1 20 6 20 11 0 5 3 7
6 4 8 -9 -19 -48 -34 -48 -7 0 -21 -7 -29 -16 -14 -13 -14 -20 -4 -35 9 -16 9
-23 -4 -35 -19 -19 -19 -25 -1 -18 7 3 16 -2 20 -11 3 -9 0 -18 -9 -21 -7 -3
-11 -12 -9 -19 3 -7 -4 -18 -15 -25 -18 -9 -19 -13 -8 -31 10 -16 9 -21 -3
-29 -10 -6 -17 -5 -20 5 -3 10 -10 11 -20 5 -11 -7 -12 -12 -3 -21 14 -14 -2
-53 -18 -44 -12 8 -12 -1 0 -24 8 -13 5 -17 -11 -18 -25 -2 -45 -20 -34 -30 4
-4 11 -1 15 6 5 7 14 10 20 7 8 -5 7 -12 -4 -22 -8 -9 -13 -20 -10 -25 4 -5 2
-9 -3 -9 -16 0 -33 -58 -19 -64 7 -2 2 -5 -11 -5 -20 -1 -21 -4 -11 -22 7 -13
7 -19 1 -15 -6 3 -14 -4 -17 -16 -4 -13 -15 -32 -24 -42 -11 -13 -13 -20 -4
-23 14 -5 7 -30 -15 -55 -10 -12 -11 -18 -3 -18 8 0 6 -8 -5 -25 -8 -13 -13
-28 -10 -33 3 -5 -4 -21 -15 -36 -11 -14 -15 -26 -9 -26 7 0 5 -6 -4 -16 -9
-8 -16 -24 -16 -34 0 -10 -5 -22 -10 -25 -6 -4 -8 -10 -5 -15 3 -4 -4 -6 -15
-3 -16 4 -19 2 -14 -11 3 -9 10 -16 15 -16 15 0 10 -20 -10 -42 -11 -11 -17
-26 -15 -33 3 -6 -5 -19 -18 -27 -53 -35 -101 -87 -94 -103 3 -9 2 -14 -2 -11
-4 2 -14 -10 -22 -27 -8 -18 -23 -42 -35 -55 l-21 -22 2 67 c1 38 0 55 -2 38
-2 -16 -9 -48 -15 -69 l-11 -39 -17 27 c-16 24 -19 25 -31 11 -10 -12 -10 -15
4 -15 13 0 16 -5 10 -22 -4 -13 -13 -50 -19 -83 l-13 -60 -1 52 c-1 41 -5 53
-20 58 -13 4 -17 13 -15 33 3 25 -11 -26 -22 -75 -2 -13 -11 -23 -20 -23 -8 0
-12 -4 -9 -10 6 -10 -29 -95 -44 -104 -5 -3 -7 -16 -3 -28 3 -14 1 -19 -6 -14
-6 3 -13 20 -17 36 -7 32 -25 32 -25 -1 0 -17 -11 -24 -32 -20 -5 0 -8 -10 -8
-24 0 -14 -4 -25 -10 -25 -5 0 -10 5 -10 10 0 6 -4 10 -10 10 -5 0 -10 -9 -10
-19 0 -11 -4 -23 -10 -26 -5 -3 -17 -22 -26 -42 -14 -28 -15 -39 -6 -54 16
-24 15 -46 0 -53 -7 -3 -4 -4 7 -3 15 2 21 -6 26 -36 3 -20 9 -41 13 -45 8 -7
5 28 -10 156 -3 30 -2 58 4 64 6 6 11 -11 15 -45 6 -51 34 -134 38 -112 1 6 3
26 5 45 4 36 24 67 24 37 0 -9 7 -17 15 -17 8 0 15 -7 15 -15 0 -8 8 -24 18
-35 l17 -21 7 23 6 23 1 -24 c1 -24 1 -24 16 -5 8 10 15 30 15 44 0 14 5 32
10 40 8 13 10 12 11 -5 3 -45 0 -147 -5 -152 -3 -3 2 -12 10 -21 21 -21 34 -1
34 53 0 23 8 50 18 63 l18 23 -4 -36 c-3 -27 1 -40 14 -51 15 -13 16 -15 2
-11 -12 4 -18 -3 -22 -28 -9 -45 2 -88 20 -81 8 3 14 1 14 -3 0 -5 -6 -11 -12
-14 -7 -2 -10 -8 -6 -12 4 -4 16 2 26 15 l18 22 27 -39 c15 -21 27 -44 27 -51
0 -7 7 -12 15 -12 8 0 15 -5 15 -11 0 -6 7 -9 15 -5 8 3 20 0 27 -7 18 -17 77
-43 116 -52 18 -4 36 -14 40 -23 8 -22 34 -42 46 -34 5 3 7 -2 3 -11 -10 -26
7 -28 49 -7 21 11 40 20 41 20 2 0 -9 -18 -23 -40 l-27 -40 26 -26 26 -26 22
36 c11 20 25 36 30 36 5 0 8 -3 6 -7 -7 -22 17 -10 36 18 12 18 29 35 37 37
11 4 10 -1 -4 -17 -23 -25 -29 -61 -11 -61 7 0 18 6 24 14 15 18 71 27 64 10
-2 -6 -22 -26 -44 -43 -21 -18 -39 -38 -39 -46 0 -8 -4 -15 -10 -15 -5 0 -10
-7 -10 -16 0 -16 25 -15 25 2 1 14 29 54 38 54 5 0 6 -10 2 -22 -5 -21 -5 -22
7 -4 7 10 29 36 48 57 l36 39 18 -22 19 -22 8 22 c7 19 19 26 41 24 3 -1 5 25
5 58 -2 43 -6 60 -16 60 -10 0 -12 8 -7 32 8 41 13 45 36 30 14 -9 20 -9 23 1
3 9 9 9 25 0 12 -7 24 -9 27 -4 3 5 -1 12 -7 15 -7 2 -2 4 12 3 21 -2 25 2 25
25 -1 14 3 24 7 22 5 -3 11 2 15 12 8 21 -27 168 -38 157 -4 -5 -12 -39 -17
-78 l-10 -70 1 60 c0 33 6 79 13 102 7 23 13 64 13 90 0 45 33 178 47 192 4 3
4 -3 0 -14 -22 -74 -33 -195 -20 -229 10 -27 32 6 36 55 3 42 4 43 12 14 10
-38 38 -106 42 -102 2 2 0 25 -4 53 -5 27 -5 60 -2 74 l6 25 7 -27 c4 -16 11
-28 16 -28 14 0 24 75 17 128 -11 87 -10 182 1 193 9 9 10 5 4 -17 -4 -15 -3
-49 1 -74 5 -25 10 -75 11 -112 3 -64 17 -111 17 -54 0 16 4 25 10 21 13 -8 2
97 -10 105 -5 3 -10 30 -13 60 -2 30 -2 45 0 33 2 -13 8 -23 13 -23 13 0 18
60 5 68 -8 4 -9 14 -4 27 5 13 8 15 8 5 1 -10 11 -15 31 -15 28 -1 41 9 21 17
-5 2 -3 12 5 22 13 19 14 18 14 -15 l1 -34 19 40 c12 25 18 31 14 15 -5 -24
-5 -25 11 -5 9 11 22 27 28 35 18 24 84 71 104 75 10 2 19 4 21 5 1 2 11 3 21
4 11 0 22 4 25 7 3 3 34 2 67 -3 66 -11 87 -3 75 29 -4 10 -6 19 -4 19 2 1 -6
12 -17 25 -11 12 -14 19 -8 15 9 -5 11 -2 7 8 -3 9 -10 16 -15 16 -5 0 -18 20
-29 45 -11 24 -30 54 -42 65 -12 11 -16 20 -10 20 9 0 9 4 0 20 -10 16 -9 22
11 39 21 18 23 27 19 73 -3 29 -13 71 -23 93 -10 22 -19 45 -19 50 -3 23 -18
55 -26 55 -4 0 -10 11 -12 25 -3 13 -1 22 4 19 6 -4 8 18 6 52 -3 43 -8 59
-19 59 -8 0 -13 -8 -11 -17 2 -11 -3 -18 -13 -18 -18 0 -18 1 -2 63 7 26 16
45 19 42 3 -3 11 8 18 25 9 22 9 34 2 43 -8 9 -9 31 -2 68 6 40 5 57 -4 64
-21 16 -26 53 -8 60 8 3 12 8 9 12 -4 3 -2 12 5 20 11 13 3 54 -23 121 -5 13
-9 34 -9 48 0 14 -5 35 -12 47 -6 12 -13 33 -14 47 -1 14 -10 53 -18 88 -9 35
-13 74 -10 88 4 14 2 24 -5 24 -12 0 -11 22 3 31 4 4 10 42 13 85 6 117 6 126
-5 133 -5 3 -8 35 -5 71 8 129 5 210 -9 210 -6 0 -8 11 -5 27 4 20 -2 36 -21
60 -15 18 -36 44 -47 59 -27 35 -47 55 -78 78 -15 10 -24 22 -21 27 3 5 1 9
-4 9 -13 0 -57 41 -55 51 2 4 -3 6 -11 3 -7 -3 -16 2 -19 10 -7 18 -28 22 -24
5 1 -6 -4 -14 -12 -17 -8 -2 -11 0 -7 6 3 5 -1 12 -9 16 -8 3 -15 16 -15 30 0
14 -4 28 -10 31 -6 3 -10 -1 -10 -9 0 -22 -23 -20 -44 3 -15 17 -21 18 -37 8
-16 -9 -21 -9 -28 1 -6 10 -12 4 -23 -18 -9 -20 -18 -28 -22 -21 -4 6 -11 9
-16 6 -5 -3 -23 -8 -39 -10 -17 -2 -40 -7 -52 -10 -16 -6 -20 -4 -14 6 5 8 4
11 0 6 -19 -17 -13 -43 15 -62 39 -26 41 -58 3 -53 -16 2 -27 8 -26 15 2 7 -4
10 -12 7 -8 -4 -15 -1 -15 5 0 6 -7 11 -15 11 -8 0 -15 4 -15 9 0 5 -7 12 -16
15 -8 3 -12 2 -9 -4 3 -6 4 -10 0 -10 -7 0 -46 22 -66 37 -8 7 -28 14 -42 15
-15 1 -27 6 -27 11 0 4 -4 6 -9 3 -5 -4 -21 -2 -35 4 -14 5 -64 11 -111 14
-71 4 -85 3 -85 -10 0 -8 4 -13 9 -9 5 3 12 1 16 -4 3 -6 12 -8 20 -5 12 5 55
-10 104 -35 23 -12 24 -28 1 -34 -26 -7 -140 13 -140 25 0 4 -9 8 -19 8 -11 0
-22 4 -25 9 -3 5 -15 7 -25 4 -10 -3 -22 0 -26 7 -4 7 -11 8 -18 2 -17 -13
-67 -21 -72 -11 -3 4 2 15 11 24 9 9 13 19 10 22 -7 7 -236 6 -276 -2 -14 -2
-47 -7 -75 -11 -75 -9 -97 -12 -126 -19 -21 -6 -27 -3 -32 14 -3 12 -11 21
-17 21 -10 0 -10 -3 0 -15 10 -12 9 -15 -7 -15 -10 0 -25 6 -32 13 -11 10 -13
10 -7 0 5 -9 0 -13 -13 -13 -10 0 -21 6 -24 13 -2 6 -8 9 -12 5 -12 -11 -1
-19 37 -27 l33 -7 -33 -6 c-44 -6 -76 16 -68 48 5 20 3 24 -14 24 -12 0 -19 4
-16 9 3 5 15 7 26 4 26 -7 26 13 1 29 -18 11 -18 13 -3 25 20 15 36 17 27 3
-3 -5 1 -10 9 -10 8 0 18 5 21 10 5 8 11 8 20 0 9 -8 11 -5 7 15 -2 15 0 25 7
25 7 0 9 5 6 10 -10 15 -25 12 -25 -6 0 -9 -6 -14 -12 -11 -7 2 -12 9 -11 15
2 6 -4 9 -12 6 -8 -4 -15 -2 -15 4 0 5 -10 13 -22 17 -22 7 -22 7 -3 12 11 3
24 9 30 14 5 5 17 9 28 9 10 0 15 5 12 10 -3 6 -15 10 -26 10 -11 0 -19 7 -19
16 0 12 6 15 25 10 15 -4 25 -2 25 4 0 6 4 8 10 5 5 -3 18 -2 27 4 15 8 16 11
3 15 -8 3 -33 12 -55 20 -22 8 -34 15 -27 15 6 1 12 8 12 17 0 8 4 12 10 9 5
-3 10 0 10 8 0 10 8 13 25 9 15 -2 25 0 25 7 0 6 11 11 25 11 14 0 25 -5 25
-11 0 -17 68 -41 88 -30 14 9 13 10 -10 11 -16 0 -28 4 -28 8 0 5 -16 14 -35
22 -19 8 -35 17 -35 21 0 4 -16 10 -36 14 l-37 6 25 14 c14 7 38 10 52 8 15
-3 26 -1 26 6 0 6 7 11 15 11 24 0 17 14 -13 28 -22 10 -29 10 -38 -2 -12 -17
-27 -9 -37 18 -6 15 -4 17 17 12 39 -10 57 2 45 28 -7 15 -20 23 -41 24 -39 3
-48 9 -41 27 3 9 -1 15 -10 15 -22 0 -31 30 -9 30 14 1 14 3 -5 19 -19 16 -20
21 -9 36 17 23 39 10 31 -18 -5 -17 -4 -19 4 -7 6 8 11 23 11 34 0 12 5 16 15
13 16 -7 30 8 17 17 -14 8 -2 56 14 56 21 0 17 20 -3 21 -15 0 -15 2 2 8 12 5
23 4 27 -3 10 -15 21 0 23 29 0 19 -5 25 -20 26 -20 0 -20 0 0 9 11 5 25 9 30
9 13 1 36 -49 29 -63 -3 -6 2 -2 10 8 20 25 20 40 2 56 -22 17 -8 43 20 37 20
-3 23 0 22 20 -2 13 -8 29 -15 34 -6 6 -9 17 -6 25 4 10 -3 14 -23 14 -34 0
-62 16 -50 27 5 4 11 2 13 -4 3 -7 18 -13 34 -13 24 0 29 4 29 24 0 13 -6 26
-14 29 -9 4 -14 20 -14 44 0 35 1 36 14 18 8 -10 14 -23 14 -28 0 -6 5 -6 13
0 6 5 23 10 36 11 22 1 22 0 7 -17 -9 -10 -16 -23 -16 -29 0 -7 -5 -12 -11
-12 -5 0 -7 -4 -4 -10 3 -5 15 -10 26 -10 10 0 19 -6 19 -12 0 -7 5 -5 11 5 6
11 9 29 6 43 -2 14 0 21 6 17 6 -4 8 0 4 11 -4 10 -7 20 -7 22 0 2 -6 4 -14 4
-16 0 -49 58 -40 71 3 5 0 18 -6 30 -16 29 -6 35 20 9 11 -11 25 -18 30 -15 6
4 10 -3 10 -14 0 -19 -10 -26 -32 -22 -5 0 -8 -3 -8 -9 0 -14 33 -13 48 2 9 9
12 9 12 -2 1 -11 4 -10 11 3 10 18 12 18 35 -4 13 -12 24 -29 24 -36 0 -8 5
-11 10 -8 6 4 8 10 6 14 -3 4 8 13 24 20 25 11 28 15 18 31 -6 10 -17 16 -23
14 -7 -3 -17 2 -24 10 -10 12 -10 19 3 38 9 12 16 31 16 41 0 9 7 20 15 23 8
4 15 13 15 21 0 9 6 13 15 10 11 -5 13 2 11 28 -3 43 -9 49 -41 41 -16 -4 -25
-13 -25 -26 0 -13 -7 -20 -20 -20 -25 0 -25 12 -1 34 11 10 16 25 13 41 -3 20
1 25 22 31 15 3 25 9 22 12 -3 3 -2 10 3 16 5 6 6 30 1 56 -4 25 -6 48 -4 52
3 5 0 8 -7 8 -7 0 -10 11 -7 30 3 18 0 31 -9 34 -7 3 -13 1 -13 -3 0 -5 -9 -7
-20 -4 -25 7 -44 38 -34 56 4 6 4 9 -1 5 -13 -12 -43 10 -47 34 -2 13 4 28 12
35 13 11 13 12 -2 13 -35 0 -47 70 -13 70 8 0 14 8 14 18 1 9 3 36 6 60 3 34
1 42 -13 42 -15 0 -15 2 -2 10 21 14 28 12 33 -7 3 -11 5 -7 6 10 l1 27 -1525
0 -1525 0 0 -675z m3120 119 c0 -8 -4 -12 -10 -9 -5 3 -10 10 -10 16 0 5 5 9
10 9 6 0 10 -7 10 -16z m-86 -154 c5 -27 8 -30 26 -20 21 11 25 4 14 -24 -5
-12 -9 -13 -25 -3 -10 6 -19 17 -19 24 0 7 -4 13 -10 13 -5 0 -10 9 -10 20 0
31 17 24 24 -10z m-228 -382 c-10 -6 -20 -7 -24 -3 -9 8 20 25 31 18 5 -3 2
-10 -7 -15z m74 2 c0 -5 -5 -10 -11 -10 -5 0 -7 5 -4 10 3 6 8 10 11 10 2 0 4
-4 4 -10z m-133 -246 c-3 -3 -12 -4 -19 -1 -8 3 -5 6 6 6 11 1 17 -2 13 -5z
m-80 -230 c-3 -3 -12 -4 -19 -1 -8 3 -5 6 6 6 11 1 17 -2 13 -5z m60 -16 c-3
-8 -6 -5 -6 6 -1 11 2 17 5 13 3 -3 4 -12 1 -19z m-27 -58 c0 -5 -2 -10 -4
-10 -3 0 -8 5 -11 10 -3 6 -1 10 4 10 6 0 11 -4 11 -10z m-21 -509 c-14 -4
-30 19 -22 33 3 5 12 1 20 -10 10 -13 10 -20 2 -23z m1004 -9 c-1 -6 11 -13
27 -17 17 -4 30 -10 30 -14 0 -4 15 -12 33 -19 43 -16 93 -61 102 -91 7 -22 5
-23 -20 -17 -17 4 -24 3 -21 -3 4 -6 -6 -4 -21 4 -15 8 -34 15 -42 15 -11 0
-9 4 5 16 19 15 18 15 -3 11 -13 -3 -26 -1 -29 4 -3 5 -10 7 -15 3 -5 -3 -7
-9 -4 -14 3 -4 -4 -6 -15 -3 -11 3 -17 9 -14 14 3 5 1 9 -5 9 -19 0 -17 35 3
59 l21 23 -25 -7 c-14 -4 -29 -14 -33 -21 -6 -11 -11 -11 -20 -2 -10 8 -10 20
-3 44 9 27 14 31 31 24 11 -5 19 -13 18 -18z m-1108 -22 c3 -6 -1 -7 -9 -4
-18 7 -21 14 -7 14 6 0 13 -4 16 -10z m854 -122 c-2 -42 -6 -58 -16 -58 -10 0
-11 -5 -4 -19 15 -26 -29 -57 -59 -41 -17 9 -19 8 -13 -7 6 -16 4 -16 -17 2
-21 18 -23 18 -17 2 4 -11 3 -16 -3 -12 -6 3 -10 1 -10 -6 0 -8 -4 -8 -15 1
-8 7 -15 9 -15 4 0 -5 -4 -2 -10 6 -8 12 -10 12 -16 -3 -5 -14 -9 -15 -20 -6
-11 9 -14 8 -14 -5 0 -18 -8 -20 -29 -7 -7 5 -10 14 -7 20 4 6 12 8 18 5 6 -4
6 2 -1 15 -7 11 -14 21 -17 21 -3 0 -3 -4 0 -9 3 -5 -1 -14 -9 -21 -12 -10
-13 -7 -6 17 4 15 6 34 3 42 -2 7 2 17 9 21 13 9 59 -31 59 -51 0 -6 8 -3 17
6 16 16 17 16 29 0 11 -14 13 -14 21 -1 4 8 20 16 35 18 45 6 64 34 59 91 -2
34 1 52 10 58 24 15 40 -21 38 -83z m-275 5 c-9 -39 -20 -48 -18 -15 2 40 3
42 14 42 6 0 8 -11 4 -27z m293 -20 c-3 -10 -5 -4 -5 12 0 17 2 24 5 18 2 -7
2 -21 0 -30z m-316 -62 c-8 -5 -10 -14 -6 -22 6 -11 5 -11 -5 -2 -14 12 -6 33
13 33 8 0 7 -3 -2 -9z m709 -55 c0 -19 -17 -30 -25 -17 -3 6 -12 8 -20 4 -11
-4 -13 -1 -9 11 8 20 54 22 54 2z m-1700 -41 c11 -13 9 -15 -11 -11 -13 3 -26
5 -29 5 -4 1 21 20 26 21 1 0 7 -7 14 -15z m1690 -5 c0 -5 -2 -10 -4 -10 -3 0
-8 5 -11 10 -3 6 -1 10 4 10 6 0 11 -4 11 -10z m-1780 -34 c0 -2 -7 -6 -15
-10 -8 -3 -15 -1 -15 4 0 6 7 10 15 10 8 0 15 -2 15 -4z m810 -6 c0 -5 -2 -10
-4 -10 -3 0 -8 5 -11 10 -3 6 -1 10 4 10 6 0 11 -4 11 -10z m-494 -51 c3 -5
-2 -6 -11 -2 -10 3 -21 0 -25 -7 -6 -9 -12 -10 -26 -1 -18 10 -18 10 -1 11 10
0 16 4 13 9 -3 4 6 6 19 3 14 -2 28 -8 31 -13z m39 11 c3 -5 2 -10 -4 -10 -5
0 -13 5 -16 10 -3 6 -2 10 4 10 5 0 13 -4 16 -10z m242 -30 c-11 -18 -27 -27
-27 -15 0 13 25 43 32 39 4 -3 2 -14 -5 -24z m-692 10 c-3 -5 -11 -10 -16 -10
-6 0 -7 5 -4 10 3 6 11 10 16 10 6 0 7 -4 4 -10z m75 -2 c0 -4 -9 -8 -21 -8
-12 0 -19 -5 -16 -12 2 -7 14 -12 25 -10 15 2 22 -2 22 -14 0 -12 -3 -14 -13
-5 -10 8 -17 7 -27 -2 -8 -7 -11 -8 -7 -1 4 7 -3 14 -15 17 -21 6 -21 7 -5 24
16 19 57 26 57 11z m30 3 c0 -6 -4 -12 -8 -15 -5 -3 -9 1 -9 9 0 8 4 15 9 15
4 0 8 -4 8 -9z m371 -19 c-6 -2 -18 -10 -25 -18 -8 -8 -21 -14 -28 -15 -10 0
-10 -2 0 -6 10 -4 10 -8 1 -19 -10 -12 -14 -12 -24 3 -16 22 -10 33 16 33 11
0 18 4 14 10 -3 5 7 16 22 24 20 10 29 11 32 3 2 -6 -1 -13 -8 -15z m-116 -2
c3 -6 -1 -7 -9 -4 -18 7 -21 14 -7 14 6 0 13 -4 16 -10z m-465 -30 c0 -5 -5
-10 -11 -10 -5 0 -7 5 -4 10 3 6 8 10 11 10 2 0 4 -4 4 -10z m230 -21 c0 -5
-7 -9 -15 -9 -15 0 -20 12 -9 23 8 8 24 -1 24 -14z m394 5 c8 -22 8 -24 -8
-24 -9 0 -14 9 -13 20 2 24 13 26 21 4z m400 -18 c-5 -13 -34 -31 -34 -21 0 5
30 35 35 35 3 0 2 -6 -1 -14z m-835 -20 c10 -12 8 -13 -8 -9 -12 3 -18 9 -15
14 7 12 10 11 23 -5z m68 8 c-3 -3 -12 -4 -19 -1 -8 3 -5 6 6 6 11 1 17 -2 13
-5z m443 -34 c-12 -23 -25 -27 -17 -6 3 8 1 17 -6 20 -7 2 -2 5 11 5 20 1 21
-2 12 -19z m-70 6 c0 -11 -19 -15 -25 -6 -3 5 1 10 9 10 9 0 16 -2 16 -4z
m288 -32 c0 -14 -7 -28 -14 -31 -13 -5 -44 18 -44 33 0 5 5 3 12 -4 17 -17 26
-15 33 8 9 27 13 25 13 -6z m-158 2 c-5 -5 -25 -10 -45 -12 -32 -2 -34 -1 -19
10 19 14 78 16 64 2z m-90 -6 c0 -5 -2 -10 -4 -10 -3 0 -8 5 -11 10 -3 6 -1
10 4 10 6 0 11 -4 11 -10z m-480 -103 c0 -2 -10 -12 -22 -23 l-23 -19 19 23
c18 21 26 27 26 19z m45 -7 c-3 -5 -14 -10 -23 -10 -15 0 -15 2 -2 10 20 13
33 13 25 0z m-20 -70 c-8 -13 -45 -19 -45 -7 0 7 11 13 25 13 14 1 23 -2 20
-6z m40 -30 c3 -6 -1 -7 -9 -4 -18 7 -21 14 -7 14 6 0 13 -4 16 -10z m-65 -15
c0 -9 -6 -12 -16 -8 -13 5 -13 7 -2 14 17 11 18 11 18 -6z m70 -33 c0 -3 -16
-22 -35 -43 -19 -22 -35 -35 -35 -30 0 5 11 19 25 32 26 26 35 50 10 29 -14
-12 -22 0 -9 13 7 6 44 5 44 -1z m-70 -5 c0 -2 -10 -12 -22 -23 l-23 -19 19
23 c18 21 26 27 26 19z m105 -97 c3 -5 -1 -10 -9 -10 -9 0 -16 5 -16 10 0 6 4
10 9 10 6 0 13 -4 16 -10z m-35 -30 c-19 -13 -30 -13 -30 0 0 6 10 10 23 10
18 0 19 -2 7 -10z m-25 -29 c-6 -5 -21 -11 -35 -15 -21 -5 -20 -3 5 9 35 17
42 18 30 6z m190 -181 c-3 -5 0 -10 7 -11 10 0 10 -2 0 -6 -6 -2 -10 -8 -7
-12 2 -4 -12 -23 -32 -42 l-36 -34 22 33 c23 32 23 34 5 55 -18 21 -18 21 -1
7 17 -12 20 -12 28 3 6 9 12 17 15 17 3 0 2 -4 -1 -10z m-81 -25 c-10 -8 -23
-14 -29 -14 -5 0 -1 6 9 14 11 8 24 15 30 15 5 0 1 -7 -10 -15z m-46 -45 c-7
-10 -14 -17 -17 -15 -4 4 18 35 25 35 2 0 -1 -9 -8 -20z m162 -80 c-8 -5 -18
-6 -24 -3 -5 4 -1 10 10 13 24 9 34 2 14 -10z m-137 -205 c-9 -19 -18 -33 -21
-31 -4 5 26 66 33 66 3 0 -3 -16 -12 -35z m197 -159 c0 -5 -59 -36 -68 -36
-14 0 23 29 41 33 12 2 23 5 25 6 1 0 2 -1 2 -3z m-86 -71 c-4 -8 -11 -15 -16
-15 -6 0 -5 6 2 15 7 8 14 15 16 15 2 0 1 -7 -2 -15z m58 8 c-6 -2 -10 -8 -8
-12 3 -4 -4 -7 -15 -7 -19 0 -19 1 -3 13 10 7 23 13 28 12 6 0 5 -3 -2 -6z
m-72 -80 c0 -5 -13 -17 -28 -27 l-27 -19 24 26 c26 28 31 32 31 20z m194 -43
c-10 -4 -21 -6 -24 -3 -8 7 24 22 34 16 5 -4 1 -10 -10 -13z m-71 -45 c-3 -9
-8 -14 -10 -11 -3 3 -2 9 2 15 9 16 15 13 8 -4z m-43 -25 c0 -5 -5 -10 -11
-10 -5 0 -7 5 -4 10 3 6 8 10 11 10 2 0 4 -4 4 -10z m-100 -60 c0 -5 -5 -10
-11 -10 -5 0 -7 5 -4 10 3 6 8 10 11 10 2 0 4 -4 4 -10z m285 -44 c0 -24 -4
-48 -9 -53 -5 -4 -7 -1 -4 7 3 8 -1 23 -10 33 -10 12 -11 17 -3 17 8 0 10 7 6
20 -4 13 -2 20 7 20 9 0 13 -14 13 -44z m-174 -3 c-8 -15 -10 -15 -11 -2 0 17
10 32 18 25 2 -3 -1 -13 -7 -23z m59 -17 c0 -2 -8 -10 -17 -17 -16 -13 -17
-12 -4 4 13 16 21 21 21 13z m90 -10 c0 -2 -7 -6 -15 -10 -8 -3 -15 -1 -15 4
0 6 7 10 15 10 8 0 15 -2 15 -4z m-190 -20 c0 -2 -7 -7 -16 -10 -8 -3 -12 -2
-9 4 6 10 25 14 25 6z m46 -108 c-19 -27 -20 -22 -4 23 8 23 13 28 16 17 2
-10 -4 -28 -12 -40z m-164 -80 c-6 -6 -7 0 -4 19 5 21 7 23 10 9 2 -10 0 -22
-6 -28z m102 -44 c-10 -15 -20 -21 -22 -15 -2 6 4 24 14 39 10 14 19 21 21 15
3 -7 -4 -24 -13 -39z m186 32 c0 -3 -4 -8 -10 -11 -5 -3 -10 -1 -10 4 0 6 5
11 10 11 6 0 10 -2 10 -4z m-265 -17 c-4 -6 -10 -22 -14 -37 -6 -20 -9 -22
-13 -10 -4 9 0 25 8 37 15 21 31 30 19 10z m1265 -9 c0 -5 -5 -10 -11 -10 -5
0 -7 5 -4 10 3 6 8 10 11 10 2 0 4 -4 4 -10z m-1070 -44 c0 -15 -59 -70 -67
-62 -7 6 47 76 58 76 5 0 9 -6 9 -14z m-143 -18 c-3 -8 -6 -5 -6 6 -1 11 2 17
5 13 3 -3 4 -12 1 -19z m223 -9 c0 -6 -4 -7 -10 -4 -5 3 -10 11 -10 16 0 6 5
7 10 4 6 -3 10 -11 10 -16z m-256 -28 c-6 -6 -24 19 -24 34 1 6 7 1 15 -9 8
-11 12 -22 9 -25z m1501 -65 c-9 -13 -24 -27 -33 -31 -10 -4 -5 6 12 24 36 37
42 39 21 7z m-1334 -69 c-8 -8 -11 -7 -11 4 0 20 13 34 18 19 3 -7 -1 -17 -7
-23z m762 2 c-3 -12 -9 -17 -15 -11 -10 10 0 44 12 37 5 -3 6 -14 3 -26z m954
-1 c-3 -7 -5 -2 -5 12 0 14 2 19 5 13 2 -7 2 -19 0 -25z m-36 -50 c-4 -39 -5
-41 -12 -16 -8 29 -1 71 10 64 4 -3 5 -24 2 -48z m-1664 20 c-3 -8 -6 -5 -6 6
-1 11 2 17 5 13 3 -3 4 -12 1 -19z m83 0 c0 -13 -7 -32 -15 -42 -14 -19 -15
-19 -15 7 0 15 4 27 10 27 5 0 7 7 4 15 -4 8 -1 15 5 15 6 0 11 -10 11 -22z
m1607 -20 c-3 -8 -6 -5 -6 6 -1 11 2 17 5 13 3 -3 4 -12 1 -19z m87 -35 c-15
-21 -31 -40 -36 -43 -11 -8 -39 -181 -32 -202 3 -10 -1 -25 -10 -33 -20 -20
-26 -19 -26 6 0 11 4 18 9 15 8 -6 24 114 22 172 -1 18 3 31 8 28 5 -3 14 8
21 24 7 16 15 28 19 25 4 -2 15 10 25 26 10 17 20 28 23 25 3 -3 -7 -22 -23
-43z m65 5 c-8 -14 -14 -18 -17 -10 -4 13 17 46 25 38 3 -2 -1 -15 -8 -28z
m-279 -18 l-8 -35 -1 31 c-1 17 2 34 6 37 11 12 12 3 3 -33z m-63 -22 c-3 -7
-5 -2 -5 12 0 14 2 19 5 13 2 -7 2 -19 0 -25z m-797 -18 c-5 -22 -8 -27 -9
-13 -1 21 9 56 14 51 2 -2 0 -19 -5 -38z m617 18 c-3 -8 -6 -5 -6 6 -1 11 2
17 5 13 3 -3 4 -12 1 -19z m361 -105 l-2 -108 -6 90 c-4 71 -7 84 -14 62 -5
-15 -11 -26 -14 -23 -5 6 27 86 35 86 1 0 2 -48 1 -107z m-159 55 c-5 -20 -18
-47 -29 -60 l-19 -23 3 25 c4 38 17 64 26 50 4 -7 10 2 14 21 3 18 8 30 11 28
2 -3 0 -21 -6 -41z m25 -20 c-3 -13 -12 -30 -19 -38 -11 -14 -36 -85 -63 -180
-6 -20 -10 -27 -11 -15 0 11 6 44 13 73 13 46 13 52 0 41 -22 -18 -17 6 6 26
11 10 20 22 20 26 0 9 52 88 58 89 2 0 0 -10 -4 -22z m-216 -20 c-6 -18 -13
-27 -15 -21 -4 11 13 53 22 53 2 0 -1 -15 -7 -32z m266 -7 c-4 -17 -9 -30 -11
-27 -3 2 -2 19 2 36 9 41 17 33 9 -9z m-394 -41 c-18 -50 -19 -51 -13 -15 6
40 21 80 28 73 2 -2 -5 -28 -15 -58z m-390 30 c-6 -11 -13 -20 -15 -20 -3 0
-5 9 -5 20 0 11 7 20 15 20 13 0 14 -4 5 -20z m-121 -32 c-5 -10 -12 -18 -15
-18 -2 0 -1 8 4 18 5 9 7 24 5 32 -4 13 -3 13 6 1 6 -10 6 -21 0 -33z m751
-13 c-8 -10 -8 -19 0 -34 9 -17 6 -28 -15 -58 -14 -21 -25 -47 -25 -58 -1 -19
-1 -19 -11 -2 -6 11 -9 30 -6 43 4 21 2 23 -12 12 -15 -12 -15 -11 -1 7 9 11
22 38 29 60 7 22 20 51 29 65 l17 25 3 -23 c2 -13 -2 -29 -8 -37z m-135 -27
c-12 -37 -27 -47 -20 -13 5 24 4 27 -5 13 -6 -10 -20 -23 -31 -29 -20 -10 -20
-9 2 20 28 38 64 43 54 9z m56 -15 c-18 -30 -51 -66 -57 -61 -4 5 55 78 63 78
2 0 -1 -8 -6 -17z m188 -37 c-6 -25 -9 -52 -5 -61 3 -8 1 -15 -4 -15 -6 0 -10
-7 -10 -17 0 -22 -6 -14 -14 20 -5 21 -4 27 5 21 9 -5 10 -2 6 11 -4 9 -3 23
1 29 5 6 12 24 16 40 4 15 9 26 12 23 3 -2 0 -25 -7 -51z m221 23 c0 -11 -4
-17 -10 -14 -5 3 -10 13 -10 21 0 8 5 14 10 14 6 0 10 -9 10 -21z m-1573 -35
c8 -22 -15 -44 -26 -25 -10 16 -4 41 10 41 5 0 12 -7 16 -16z m1462 -124 l0
-25 -13 24 c-7 13 -11 33 -8 44 5 20 6 20 13 1 4 -10 8 -30 8 -44z m-1344
-301 c11 -17 -1 -21 -15 -4 -8 9 -8 15 -2 15 6 0 14 -5 17 -11z m309 -252 c-3
-9 -11 -17 -16 -17 -6 0 -7 7 -4 16 3 9 6 21 6 27 0 8 3 8 10 1 6 -6 8 -18 4
-27z m33 -179 c-3 -8 -6 -5 -6 6 -1 11 2 17 5 13 3 -3 4 -12 1 -19z m728 -703
c-9 -30 -15 -61 -13 -68 3 -6 -1 -30 -8 -52 -11 -34 -13 -36 -13 -13 -1 15 -5
29 -9 32 -17 10 -11 69 9 94 10 14 19 30 19 36 0 14 22 38 28 31 3 -2 -3 -29
-13 -60z m64 29 c-5 -6 -6 -20 -2 -29 4 -13 3 -16 -5 -11 -13 8 -16 35 -6 61
5 13 9 14 15 4 4 -7 4 -19 -2 -25z m-189 -13 c0 -11 -4 -23 -10 -26 -6 -4 -10
5 -10 19 0 14 5 26 10 26 6 0 10 -9 10 -19z m230 -41 c0 -19 -18 -19 -23 -1
-3 14 -1 18 9 14 8 -3 14 -9 14 -13z m-87 -25 c-3 -9 -8 -14 -10 -11 -3 3 -2
9 2 15 9 16 15 13 8 -4z m800 -217 c3 -21 1 -36 -3 -33 -12 7 -19 -20 -13 -46
4 -16 3 -20 -6 -15 -12 8 -9 105 5 127 9 14 11 9 17 -33z m-744 -30 c-1 -41
-1 -42 -11 -15 -5 15 -7 34 -4 42 10 27 16 16 15 -27z m891 -63 c0 -8 -4 -15
-10 -15 -5 0 -10 7 -10 15 0 8 5 15 10 15 6 0 10 -7 10 -15z m-830 -158 c0 -5
-4 -5 -10 -2 -5 3 -10 14 -10 23 0 15 2 15 10 2 5 -8 10 -19 10 -23z m894 17
c3 -9 6 -30 5 -47 l-1 -32 -13 30 c-16 35 -19 65 -6 65 5 0 12 -7 15 -16z
m-554 -16 c0 -16 -3 -19 -11 -11 -6 6 -8 16 -5 22 11 17 16 13 16 -11z m199
-22 c8 -9 8 -16 2 -20 -6 -4 -15 3 -21 14 -12 23 2 27 19 6z m-522 -1401 c0
-8 -4 -12 -9 -9 -5 3 -6 10 -3 15 9 13 12 11 12 -6z"/>
<path d="M3917 4083 c-4 -3 -7 -11 -7 -17 0 -6 5 -5 12 2 6 6 9 14 7 17 -3 3
-9 2 -12 -2z"/>
<path d="M3837 3953 c-4 -3 -7 -13 -7 -22 1 -13 3 -13 11 2 11 19 8 33 -4 20z"/>
<path d="M7520 8973 c-3 -99 -7 -120 -27 -140 -19 -19 -21 -30 -18 -102 3 -68
1 -81 -13 -86 -24 -7 -26 -75 -3 -135 11 -28 16 -52 11 -55 -4 -2 -5 -23 -3
-45 3 -25 -2 -60 -13 -90 -16 -45 -16 -51 -2 -67 19 -23 58 -138 58 -174 0
-15 4 -39 10 -53 5 -14 6 -28 1 -30 -4 -3 -8 -23 -9 -45 -2 -38 -1 -39 33 -41
99 -8 590 6 615 17 8 3 179 7 380 8 201 1 375 5 387 9 12 4 24 2 28 -4 3 -5
15 -10 26 -10 19 0 19 12 19 535 l0 535 -740 0 -739 0 -1 -27z"/>
<path d="M3020 8746 c0 -15 36 -46 55 -46 31 0 52 17 39 30 -13 13 -94 27 -94
16z"/>
<path d="M3171 8236 c-11 -13 -11 -17 2 -22 25 -9 62 0 62 16 0 21 -49 25 -64
6z"/>
<path d="M3040 8095 c0 -9 5 -15 11 -13 6 2 11 8 11 13 0 5 -5 11 -11 13 -6 2
-11 -4 -11 -13z"/>
<path d="M2996 7964 c-8 -12 -12 -24 -9 -27 4 -4 39 6 61 19 1 0 0 8 -3 16 -9
22 -33 18 -49 -8z"/>
<path d="M2993 7913 c-37 -5 -45 -32 -18 -59 21 -21 19 -33 -7 -43 -15 -5 -18
-10 -9 -15 15 -10 61 20 61 39 0 7 -9 17 -20 20 -30 10 -24 35 10 42 17 3 30
9 30 14 0 5 -3 8 -7 7 -5 0 -23 -3 -40 -5z"/>
<path d="M3040 7880 c-18 -12 -2 -12 25 0 13 6 15 9 5 9 -8 0 -22 -4 -30 -9z"/>
<path d="M2950 7440 c0 -5 5 -10 11 -10 5 0 7 5 4 10 -3 6 -8 10 -11 10 -2 0
-4 -4 -4 -10z"/>
<path d="M2997 7414 c-3 -4 12 -20 33 -35 22 -16 40 -32 40 -34 0 -3 -7 -17
-16 -31 -9 -13 -15 -26 -13 -28 11 -11 43 -9 47 3 3 8 0 11 -6 7 -6 -3 -13 -2
-17 4 -3 5 1 10 9 10 8 0 17 -4 21 -9 3 -5 22 -15 43 -21 20 -7 51 -18 68 -26
18 -7 60 -20 95 -28 35 -8 96 -26 134 -40 41 -15 91 -26 121 -26 27 0 55 -5
61 -11 6 -6 41 -12 77 -12 55 -2 66 -5 66 -19 0 -21 16 -32 25 -18 4 6 10 8
15 5 5 -3 14 4 20 15 9 17 14 19 33 8 20 -10 21 -10 9 5 -14 17 -54 19 -45 2
4 -5 -3 -1 -15 9 -29 25 -28 29 7 21 17 -3 32 -2 36 4 3 6 1 11 -4 11 -6 0
-11 6 -11 14 0 17 -58 49 -72 40 -5 -3 -15 0 -23 6 -8 7 -24 10 -36 7 -12 -3
-18 -3 -14 1 3 4 -18 11 -47 17 -40 8 -56 7 -66 -2 -7 -7 -18 -13 -23 -13 -6
0 -7 -5 -3 -11 7 -12 -33 -3 -52 12 -6 5 -31 11 -56 13 -51 5 -124 40 -138 66
-7 12 -21 18 -45 17 -33 -1 -52 -17 -21 -17 8 0 18 -4 21 -10 14 -22 -29 -8
-53 18 -31 31 -69 50 -126 61 -23 5 -48 11 -57 15 -8 4 -18 4 -22 0z m751
-201 c5 -18 -23 -16 -39 3 -11 14 -10 15 11 12 13 -1 25 -9 28 -15z m52 -13
c0 -5 -7 -7 -15 -4 -8 4 -15 8 -15 10 0 2 7 4 15 4 8 0 15 -4 15 -10z m-40
-20 c12 -8 11 -10 -7 -10 -13 0 -23 5 -23 10 0 13 11 13 30 0z"/>
<path d="M2905 7397 c12 -10 14 -16 7 -21 -7 -4 -12 -2 -12 3 0 6 -4 11 -10
11 -19 0 -9 -15 23 -34 17 -11 35 -19 38 -18 4 1 5 -9 2 -21 -3 -16 -2 -18 5
-8 8 11 10 11 15 0 3 -11 7 -11 17 -2 9 8 19 9 32 2 10 -5 18 -6 18 -1 0 12
-34 42 -47 42 -6 0 -16 7 -23 15 -11 13 -66 45 -78 45 -3 0 2 -6 13 -13z m92
-63 c-3 -3 -12 -4 -19 -1 -8 3 -5 6 6 6 11 1 17 -2 13 -5z"/>
<path d="M2795 7350 c3 -5 12 -7 20 -3 21 7 19 13 -6 13 -11 0 -18 -4 -14 -10z"/>
<path d="M3340 7350 c-14 -4 -19 -8 -12 -9 6 -1 12 -8 12 -17 0 -11 5 -14 16
-10 9 4 27 0 40 -9 14 -9 25 -11 29 -5 3 6 18 8 33 4 26 -5 26 -5 8 10 -11 9
-30 16 -42 16 -12 0 -27 7 -34 15 -14 16 -14 17 -50 5z"/>
<path d="M2870 7330 c0 -5 5 -10 10 -10 6 0 10 5 10 10 0 6 -4 10 -10 10 -5 0
-10 -4 -10 -10z"/>
<path d="M6018 7013 c7 -3 16 -2 19 1 4 3 -2 6 -13 5 -11 0 -14 -3 -6 -6z"/>
<path d="M2678 7003 c6 -2 10 -9 6 -14 -3 -5 1 -9 8 -10 7 0 4 -4 -7 -9 -17
-7 -15 -9 13 -9 17 -1 32 3 32 7 0 14 -35 42 -51 41 -10 0 -11 -2 -1 -6z"/>
<path d="M4055 7001 c-3 -5 -1 -12 5 -16 5 -3 10 1 10 9 0 18 -6 21 -15 7z"/>
<path d="M5970 6995 c0 -8 2 -15 4 -15 2 0 6 7 10 15 3 8 1 15 -4 15 -6 0 -10
-7 -10 -15z"/>
<path d="M6405 6990 c27 -12 43 -12 25 0 -8 5 -22 9 -30 9 -10 0 -8 -3 5 -9z"/>
<path d="M5865 6979 c-11 -17 -2 -18 30 -4 l30 13 -27 1 c-15 1 -30 -4 -33
-10z"/>
<path d="M6451 6976 c10 -9 69 -36 69 -32 0 6 -55 36 -66 36 -4 0 -5 -2 -3 -4z"/>
<path d="M6067 6945 c-19 -27 -46 -32 -65 -13 -10 10 -17 10 -32 0 -17 -10
-21 -10 -26 3 -5 13 -8 13 -21 0 -8 -9 -19 -13 -24 -10 -4 3 -11 -5 -14 -17
-4 -14 -14 -24 -24 -24 -12 0 -17 5 -13 15 3 9 1 12 -6 7 -7 -4 -12 -16 -12
-28 0 -17 -2 -18 -16 -8 -13 11 -16 10 -21 -8 -3 -12 -9 -19 -14 -16 -5 3 -9
0 -9 -6 0 -7 -7 -9 -16 -6 -11 4 -14 1 -12 -14 2 -10 0 -20 -4 -20 -4 -1 -21
-13 -38 -28 -28 -25 -41 -62 -21 -62 5 0 13 -14 16 -32 8 -32 50 -114 69 -134
40 -39 99 -65 154 -65 68 -1 114 16 166 61 51 45 98 141 75 155 -5 4 -9 0 -9
-8 0 -15 -41 -57 -56 -57 -5 0 0 7 10 15 16 12 17 15 4 15 -34 0 -48 -11 -38
-30 8 -15 5 -22 -11 -34 -12 -8 -18 -19 -14 -25 12 -20 -25 -24 -40 -5 -14 18
-15 18 -21 -4 l-7 -23 -22 21 c-20 19 -25 20 -36 7 -11 -11 -19 -12 -37 -4
-20 9 -27 8 -38 -8 -8 -10 -14 -15 -14 -11 0 5 -7 3 -15 -4 -13 -10 -15 -9
-15 9 0 12 -4 19 -10 16 -14 -9 -13 8 2 23 6 6 9 14 6 17 -3 3 -13 -1 -22 -10
-15 -15 -17 -14 -22 14 -4 17 -11 34 -15 37 -5 3 -6 10 -3 16 4 6 7 27 6 46
-1 27 2 33 14 28 8 -3 12 -2 9 4 -3 6 1 10 10 10 9 0 13 5 10 10 -3 6 -1 10 5
10 6 0 9 4 6 9 -3 5 4 11 15 14 12 3 18 10 14 16 -3 6 0 11 7 11 7 0 23 3 36
6 12 4 22 2 22 -4 0 -6 -13 -13 -28 -17 -28 -6 -29 -8 -27 -61 3 -60 3 -61 57
-93 23 -14 39 -18 43 -11 3 5 21 10 39 10 32 0 34 2 40 44 8 50 -13 106 -39
106 -8 0 -15 5 -15 10 0 6 -7 10 -16 10 -8 0 -12 4 -9 10 6 10 40 8 51 -3 4
-4 23 -7 41 -7 23 0 32 -4 27 -11 -5 -8 1 -10 20 -7 14 3 26 1 26 -5 0 -5 7
-4 15 3 8 6 20 8 26 4 9 -5 10 -2 4 12 -20 49 -18 60 12 58 15 -1 30 -3 33 -4
3 -1 8 -2 12 -1 3 0 28 -6 55 -13 26 -8 65 -17 86 -21 36 -6 78 -23 150 -61
15 -9 32 -12 39 -8 7 4 8 3 4 -4 -8 -13 29 -35 52 -30 13 3 10 8 -13 21 -30
16 -30 16 -5 17 22 1 19 4 -17 22 -24 11 -43 24 -43 29 0 5 -4 9 -9 9 -5 0
-22 5 -38 11 -19 7 -24 12 -15 18 8 5 -20 11 -65 15 -43 3 -79 11 -81 16 -2 6
-15 7 -28 4 -13 -4 -24 -2 -24 4 0 6 -10 8 -22 4 -16 -4 -19 -2 -13 9 5 8 5
11 0 7 -4 -4 -17 -3 -28 3 -14 8 -18 8 -13 0 4 -6 2 -11 -3 -11 -6 0 -11 5
-11 11 0 5 -4 7 -10 4 -5 -3 -10 -1 -10 6 0 8 -4 8 -15 -1 -12 -10 -16 -8 -25
14 -5 14 -11 26 -12 26 -2 0 -11 -12 -21 -25z"/>
<path d="M2698 6943 c7 -3 16 -2 19 1 4 3 -2 6 -13 5 -11 0 -14 -3 -6 -6z"/>
<path d="M3380 6943 c0 -5 4 -14 9 -21 7 -12 12 -12 30 -1 29 19 26 29 -9 29
-16 0 -30 -3 -30 -7z"/>
<path d="M5779 6943 c-1 -5 -1 -12 0 -17 1 -5 -5 -6 -14 -3 -8 4 -15 2 -15 -3
0 -6 -5 -10 -12 -10 -17 0 -108 -61 -108 -72 0 -6 9 -8 20 -5 11 3 20 1 20 -5
0 -5 5 -6 11 -3 5 4 8 12 6 18 -4 12 53 57 72 57 5 0 16 8 23 18 7 11 20 21
28 25 10 4 8 6 -7 6 -13 1 -24 -2 -24 -6z"/>
<path d="M6540 6931 c0 -5 7 -12 16 -15 14 -5 15 -4 4 9 -14 17 -20 19 -20 6z"/>
<path d="M6596 6875 c4 -8 8 -15 10 -15 2 0 4 7 4 15 0 8 -4 15 -10 15 -5 0
-7 -7 -4 -15z"/>
<path d="M5595 6817 c-11 -11 -14 -17 -7 -13 7 4 12 2 12 -6 0 -8 6 -7 17 5
11 10 14 20 8 26 -6 5 -18 1 -30 -12z"/>
<path d="M5518 6643 c-21 -5 -23 -19 -6 -29 7 -4 8 -3 4 4 -5 8 1 12 15 12 17
0 19 -3 10 -14 -9 -11 -7 -15 10 -19 18 -5 20 -2 16 18 -2 14 1 26 7 29 14 6
-34 5 -56 -1z"/>
<path d="M5526 6553 c-7 -18 13 -25 60 -21 l39 3 -47 16 c-40 13 -48 14 -52 2z"/>
<path d="M2112 6473 c-10 -4 -10 -8 -1 -19 16 -20 28 -17 26 6 -1 21 -3 22
-25 13z"/>
<path d="M2215 6370 c-2 -3 10 -7 26 -8 16 -1 29 2 29 8 0 10 -49 10 -55 0z"/>
<path d="M3127 6339 c7 -7 15 -10 18 -7 3 3 -2 9 -12 12 -14 6 -15 5 -6 -5z"/>
<path d="M3095 6310 c3 -5 8 -10 11 -10 2 0 4 5 4 10 0 6 -5 10 -11 10 -5 0
-7 -4 -4 -10z"/>
<path d="M2165 6270 c-3 -5 -1 -10 4 -10 6 0 11 5 11 10 0 6 -2 10 -4 10 -3 0
-8 -4 -11 -10z"/>
<path d="M2990 6243 c0 -9 9 -13 25 -11 33 4 33 22 0 24 -15 0 -25 -4 -25 -13z"/>
<path d="M2790 6230 c0 -5 5 -10 11 -10 5 0 7 5 4 10 -3 6 -8 10 -11 10 -2 0
-4 -4 -4 -10z"/>
<path d="M2170 6216 c0 -9 -7 -16 -15 -16 -8 0 -15 -5 -15 -10 0 -7 6 -7 18
-1 9 5 22 9 27 10 14 1 12 24 -2 29 -7 2 -13 -3 -13 -12z"/>
<path d="M2645 6210 c-3 -5 -2 -10 4 -10 5 0 13 5 16 10 3 6 2 10 -4 10 -5 0
-13 -4 -16 -10z"/>
<path d="M2180 6172 c0 -7 -10 -13 -22 -13 -19 -1 -20 -2 -4 -6 20 -5 44 12
33 24 -4 3 -7 1 -7 -5z"/>
<path d="M2920 6135 c-11 -13 -10 -14 4 -9 9 3 16 10 16 15 0 13 -6 11 -20 -6z"/>
<path d="M2660 6125 c7 -9 15 -13 17 -11 7 7 -7 26 -19 26 -6 0 -6 -6 2 -15z"/>
<path d="M2980 6126 c0 -4 7 -14 15 -22 8 -9 15 -11 15 -6 0 5 -7 15 -15 22
-8 7 -15 9 -15 6z"/>
<path d="M2850 6085 c-7 -9 -10 -18 -7 -21 3 -3 10 4 17 15 13 25 8 27 -10 6z"/>
<path d="M2871 6077 c-15 -15 -14 -34 3 -40 10 -4 13 -1 9 9 -3 8 1 14 11 14
9 0 16 4 16 9 0 15 -27 20 -39 8z"/>
<path d="M7553 5880 c-3 -11 -9 -20 -13 -20 -4 0 -5 -30 -3 -67 4 -69 -5 -114
-45 -223 -22 -59 -32 -140 -37 -286 -1 -56 -8 -101 -18 -120 -8 -16 -18 -51
-22 -77 -4 -27 -14 -51 -21 -54 -9 -3 -12 -13 -8 -28 4 -15 -4 -46 -21 -84
-20 -45 -26 -71 -23 -103 8 -73 -13 -195 -43 -251 -5 -9 -12 -37 -16 -62 -3
-24 -9 -42 -14 -40 -4 3 -11 0 -15 -6 -4 -8 -9 -7 -15 2 -5 8 -9 10 -9 4 0 -5
-1 -60 -2 -122 -1 -146 -4 -160 -39 -175 -16 -7 -32 -22 -36 -33 -3 -11 -17
-35 -31 -53 -14 -18 -25 -46 -25 -62 0 -16 -5 -28 -11 -27 -5 1 -11 -7 -13
-18 -3 -11 -7 -27 -10 -35 -3 -8 -8 -26 -10 -40 -7 -48 -25 -80 -45 -80 -10 0
-21 -7 -24 -15 -4 -8 -10 -12 -15 -9 -5 3 -9 -2 -9 -11 0 -9 -9 -30 -21 -46
-11 -16 -18 -36 -15 -44 3 -10 -1 -15 -12 -15 -14 0 -14 -2 -3 -9 11 -7 9 -11
-8 -20 -11 -7 -21 -18 -21 -25 0 -9 -17 -16 -48 -21 -26 -3 -52 -9 -57 -13
-27 -19 -75 -103 -75 -131 0 -17 -4 -31 -9 -31 -5 0 -9 -6 -8 -12 1 -34 -4
-48 -18 -48 -8 0 -15 6 -15 13 0 8 -8 21 -19 31 -17 16 -20 14 -61 -30 -37
-41 -46 -45 -62 -35 -15 10 -22 7 -43 -15 -14 -15 -22 -30 -19 -35 3 -5 -2 -9
-10 -9 -9 0 -16 7 -16 15 0 8 -7 15 -16 15 -8 0 -13 4 -10 9 3 5 -1 15 -10 22
-14 11 -18 10 -30 -6 -8 -10 -14 -30 -14 -43 0 -14 -7 -30 -16 -36 -12 -9 -13
-17 -5 -39 14 -36 4 -78 -15 -70 -8 3 -14 -1 -14 -9 0 -8 -5 -26 -12 -40 -16
-32 -63 -37 -71 -6 -3 11 -10 17 -16 13 -22 -13 -51 -85 -51 -125 0 -48 -16
-120 -38 -172 -12 -30 -21 -37 -40 -35 -15 1 -29 11 -36 27 -25 57 -60 67 -69
20 -4 -16 -4 -36 -1 -43 3 -8 0 -25 -5 -39 -12 -33 18 -142 41 -146 8 -2 30
11 48 28 23 22 47 32 86 39 30 4 54 5 54 0 0 -9 20 -7 38 5 22 13 22 3 1 -43
-10 -24 -19 -54 -19 -67 0 -37 -69 -232 -147 -414 -149 -347 -188 -463 -209
-617 -3 -26 -8 -51 -10 -55 -13 -21 -55 -316 -55 -388 0 -47 -6 -116 -13 -155
-33 -177 -59 -291 -68 -303 -6 -7 -8 -15 -4 -19 11 -11 -29 -32 -56 -29 -16 2
-25 -1 -22 -8 2 -6 -7 -12 -22 -12 -38 -3 -72 -40 -79 -88 -4 -22 -11 -45 -15
-51 -4 -5 -13 -27 -20 -48 -6 -20 -15 -35 -19 -32 -5 2 -6 -7 -3 -20 2 -14 9
-22 15 -18 6 3 7 1 3 -6 -6 -8 -12 -9 -20 -2 -10 8 -13 -9 -14 -76 0 -57 3
-82 8 -73 8 12 10 11 11 -5 l0 -20 9 20 9 20 1 -20 1 -20 9 20 c7 18 8 16 12
-10 5 -27 6 -28 12 -9 8 24 96 51 96 30 0 -6 4 -4 10 4 14 22 30 -30 30 -101
l0 -59 360 0 c198 0 360 4 360 9 0 14 59 71 75 72 56 5 82 -8 95 -47 l12 -34
83 0 83 0 23 36 c12 20 31 46 43 58 32 34 29 43 -22 55 -105 27 -127 34 -132
42 -3 4 -22 9 -43 11 -27 1 -37 7 -37 19 0 10 -13 23 -29 30 -16 7 -27 17 -25
21 3 4 -2 8 -10 8 -9 0 -16 7 -16 15 0 8 -9 23 -20 32 -11 10 -20 23 -20 29 0
7 -15 32 -33 56 -18 24 -38 54 -45 68 -7 14 -21 39 -31 55 -134 216 -160 297
-139 432 23 149 125 224 197 145 39 -43 62 -52 138 -52 110 -1 139 -19 218
-142 37 -56 84 -128 105 -159 89 -129 130 -252 130 -390 0 -70 14 -99 47 -99
33 0 133 45 133 59 0 5 6 16 13 23 6 7 21 31 32 53 18 36 79 123 94 135 3 3
17 21 30 40 14 19 34 42 45 50 12 8 33 26 48 40 15 14 45 36 67 49 22 14 38
27 36 31 -2 3 10 15 26 25 16 11 29 23 29 28 0 4 5 7 11 7 5 0 27 13 47 29 68
55 231 145 332 184 127 49 190 42 237 -25 24 -35 28 -51 27 -102 -1 -55 -9
-77 -79 -216 -116 -232 -125 -246 -163 -263 -45 -20 -76 -5 -68 33 14 59 29
200 23 206 -17 17 -57 -10 -94 -63 -62 -88 -265 -273 -313 -286 -14 -4 -31
-11 -39 -16 -18 -12 -5 -32 74 -116 59 -62 95 -120 95 -155 0 -20 2 -20 670
-20 l670 0 0 2743 0 2742 -63 18 c-83 25 -182 47 -237 54 -140 16 -466 111
-775 224 -157 58 -337 119 -351 119 -9 0 -18 -9 -21 -20z m-1183 -2794 c0 -13
-7 -29 -15 -36 -8 -7 -12 -16 -9 -21 3 -5 0 -9 -5 -9 -6 0 -11 14 -11 30 0 17
5 30 10 30 6 0 10 7 10 15 0 8 5 15 10 15 6 0 10 -11 10 -24z m-905 -2835 c3
-5 2 -12 -3 -15 -5 -3 -9 1 -9 9 0 17 3 19 12 6z m12 -41 c1 -16 -1 -17 -12
-7 -11 10 -8 19 10 27 1 0 1 -9 2 -20z"/>
<path d="M2330 5816 c0 -2 7 -7 16 -10 8 -3 12 -2 9 4 -6 10 -25 14 -25 6z"/>
<path d="M3810 5800 l-23 -20 26 0 c20 0 27 5 27 20 0 11 -2 20 -3 20 -2 0
-14 -9 -27 -20z"/>
<path d="M3865 5800 c3 -5 8 -10 11 -10 2 0 4 5 4 10 0 6 -5 10 -11 10 -5 0
-7 -4 -4 -10z"/>
<path d="M2285 5720 c-3 -5 1 -10 10 -10 9 0 13 5 10 10 -3 6 -8 10 -10 10 -2
0 -7 -4 -10 -10z"/>
<path d="M2386 5582 c-2 -4 -1 -14 3 -20 6 -10 11 -9 21 3 11 13 10 14 -5 9
-13 -5 -16 -4 -11 4 4 7 5 12 2 12 -3 0 -7 -4 -10 -8z"/>
<path d="M3770 5455 c7 -8 17 -15 22 -15 6 0 5 7 -2 15 -7 8 -17 15 -22 15 -6
0 -5 -7 2 -15z"/>
<path d="M2425 5450 c3 -5 8 -10 11 -10 2 0 4 5 4 10 0 6 -5 10 -11 10 -5 0
-7 -4 -4 -10z"/>
<path d="M2377 5404 c-10 -11 5 -34 22 -33 10 0 11 2 3 6 -6 2 -10 9 -7 13 6
10 -10 22 -18 14z"/>
<path d="M2395 5340 c3 -5 8 -10 11 -10 2 0 4 5 4 10 0 6 -5 10 -11 10 -5 0
-7 -4 -4 -10z"/>
<path d="M2416 5315 c-3 -8 0 -16 7 -19 7 -2 -3 -5 -20 -5 -18 -1 -33 -5 -33
-11 0 -9 64 -5 81 5 11 7 1 32 -16 39 -7 2 -16 -1 -19 -9z"/>
<path d="M2415 5250 c-3 -6 1 -7 9 -4 18 7 21 14 7 14 -6 0 -13 -4 -16 -10z"/>
<path d="M2520 5229 c0 -5 5 -7 10 -4 6 3 10 8 10 11 0 2 -4 4 -10 4 -5 0 -10
-5 -10 -11z"/>
<path d="M2440 5219 c0 -5 5 -7 10 -4 6 3 10 8 10 11 0 2 -4 4 -10 4 -5 0 -10
-5 -10 -11z"/>
<path d="M2506 5025 c4 -8 8 -15 10 -15 2 0 4 7 4 15 0 8 -4 15 -10 15 -5 0
-7 -7 -4 -15z"/>
<path d="M2560 4990 c0 -5 5 -10 11 -10 5 0 7 5 4 10 -3 6 -8 10 -11 10 -2 0
-4 -4 -4 -10z"/>
<path d="M2605 4910 c-3 -5 1 -10 10 -10 9 0 13 5 10 10 -3 6 -8 10 -10 10 -2
0 -7 -4 -10 -10z"/>
<path d="M2645 4770 c-3 -5 -1 -10 4 -10 6 0 11 5 11 10 0 6 -2 10 -4 10 -3 0
-8 -4 -11 -10z"/>
<path d="M4556 4423 c-6 -14 -5 -15 5 -6 7 7 10 15 7 18 -3 3 -9 -2 -12 -12z"/>
<path d="M3187 4377 c-3 -8 1 -14 9 -14 16 0 19 13 5 21 -5 3 -11 0 -14 -7z"/>
<path d="M3110 4295 c0 -8 2 -15 4 -15 2 0 6 7 10 15 3 8 1 15 -4 15 -6 0 -10
-7 -10 -15z"/>
<path d="M4372 4300 c1 -3 -2 -18 -7 -33 -5 -18 -3 -33 4 -40 14 -14 15 -30 1
-22 -5 3 -10 -1 -10 -9 0 -24 18 -19 26 7 4 12 12 25 17 29 8 4 5 14 -8 28
-19 21 -19 21 1 14 16 -7 17 -6 6 8 -10 13 -10 17 0 21 7 3 3 4 -9 4 -12 -1
-21 -4 -21 -7z"/>
<path d="M4447 4273 c-4 -3 -7 -17 -7 -30 0 -12 -4 -23 -10 -23 -5 0 -9 -17
-9 -37 1 -27 3 -30 6 -13 7 45 13 56 22 41 5 -8 8 3 8 28 0 44 0 45 -10 34z"/>
<path d="M4512 4180 c0 -14 2 -19 5 -12 2 6 2 18 0 25 -3 6 -5 1 -5 -13z"/>
<path d="M4772 4145 c1 -17 -2 -41 -7 -54 -5 -17 -4 -22 5 -16 10 6 11 -7 6
-61 -7 -63 -6 -67 7 -49 9 11 13 23 11 27 -3 5 0 8 6 8 6 0 13 -7 16 -15 4 -8
10 -15 15 -15 6 0 5 8 -1 19 -5 11 -10 28 -10 39 0 11 -7 25 -15 32 -8 7 -15
27 -16 44 0 17 -4 40 -9 51 -7 17 -8 15 -8 -10z"/>
<path d="M4811 4144 c0 -11 3 -14 6 -6 3 7 2 16 -1 19 -3 4 -6 -2 -5 -13z"/>
<path d="M4840 4135 c0 -24 36 -85 50 -85 15 0 13 5 -20 58 -21 33 -30 41 -30
27z"/>
<path d="M2947 4133 c-4 -3 -7 -11 -7 -17 0 -6 5 -5 12 2 6 6 9 14 7 17 -3 3
-9 2 -12 -2z"/>
<path d="M4403 4095 c4 -36 2 -45 -12 -50 -10 -3 -18 -12 -18 -20 0 -19 3 -19
27 5 14 14 19 31 18 65 -1 25 -6 45 -11 45 -5 0 -6 -20 -4 -45z"/>
<path d="M2660 4120 c0 -6 7 -10 15 -10 8 0 15 2 15 4 0 2 -7 6 -15 10 -8 3
-15 1 -15 -4z"/>
<path d="M4821 4110 c0 -18 27 -79 28 -64 1 7 -6 27 -14 45 -8 19 -14 27 -14
19z"/>
<path d="M4921 4080 c14 -31 19 -36 19 -24 0 6 -7 19 -16 30 -14 18 -14 18 -3
-6z"/>
<path d="M4451 4064 c0 -11 3 -14 6 -6 3 7 2 16 -1 19 -3 4 -6 -2 -5 -13z"/>
<path d="M4850 4013 c0 -12 5 -25 10 -28 13 -8 13 15 0 35 -8 12 -10 11 -10
-7z"/>
<path d="M4895 3980 c9 -16 20 -30 25 -30 14 0 12 12 -6 38 -23 33 -37 27 -19
-8z"/>
<path d="M7045 3999 c-4 -6 -5 -12 -2 -15 2 -3 7 2 10 11 7 17 1 20 -8 4z"/>
<path d="M5847 3986 c-4 -9 0 -19 7 -23 7 -5 16 -15 20 -23 3 -8 4 -1 0 15 -7
37 -19 51 -27 31z"/>
<path d="M4849 3963 c-11 -3 -14 -12 -11 -33 4 -29 32 -51 32 -26 0 8 5 16 12
18 18 6 -13 45 -33 41z"/>
<path d="M2792 3890 c0 -19 2 -27 5 -17 2 9 2 25 0 35 -3 9 -5 1 -5 -18z"/>
<path d="M3026 3881 c-4 -7 -5 -15 -2 -18 9 -9 19 4 14 18 -4 11 -6 11 -12 0z"/>
<path d="M3112 3828 c2 -16 6 -24 11 -19 5 5 5 17 -2 28 -9 16 -10 15 -9 -9z"/>
<path d="M4266 3818 c3 -15 2 -34 -4 -43 -8 -15 -11 -14 -30 10 l-22 28 -1
-24 c-1 -13 -3 -41 -5 -62 -3 -33 -1 -37 12 -27 8 7 24 14 37 15 12 1 27 3 34
4 15 1 6 65 -13 101 l-14 25 6 -27z m2 -93 c-3 -3 -9 2 -12 12 -6 14 -5 15 5
6 7 -7 10 -15 7 -18z"/>
<path d="M3050 3809 c0 -5 5 -7 10 -4 6 3 10 8 10 11 0 2 -4 4 -10 4 -5 0 -10
-5 -10 -11z"/>
<path d="M4301 3804 c0 -11 3 -14 6 -6 3 7 2 16 -1 19 -3 4 -6 -2 -5 -13z"/>
<path d="M4377 3796 c-4 -10 -7 -26 -7 -37 0 -10 -4 -19 -10 -19 -5 0 -10 6
-10 14 0 13 -29 31 -37 23 -2 -2 1 -16 6 -31 10 -25 13 -26 88 -26 43 0 73 4
67 8 -6 4 -14 16 -18 27 -6 16 -9 17 -17 5 -8 -13 -10 -13 -19 0 -9 13 -10 13
-11 0 0 -8 -6 0 -13 19 -10 28 -14 31 -19 17z"/>
<path d="M4545 3790 c-4 -6 -10 -8 -14 -5 -5 2 -13 -7 -20 -21 -21 -47 -26
-45 124 -44 76 1 221 25 230 39 2 5 -29 6 -69 4 -47 -3 -76 -1 -80 6 -9 15
-59 14 -74 -1 -9 -9 -12 -9 -12 0 0 16 -30 16 -30 0 -1 -7 -9 -3 -19 10 -21
25 -27 27 -36 12z"/>
<path d="M4898 3763 c7 -3 16 -2 19 1 4 3 -2 6 -13 5 -11 0 -14 -3 -6 -6z"/>
<path d="M4080 3539 c-6 -11 -9 -25 -7 -32 3 -7 8 -4 13 8 4 11 15 25 23 32
14 11 14 12 -1 13 -10 0 -22 -9 -28 -21z"/>
<path d="M3945 3399 c-4 -6 -5 -12 -2 -15 2 -3 7 2 10 11 7 17 1 20 -8 4z"/>
<path d="M3767 3276 c-10 -27 -8 -36 7 -36 22 0 27 15 12 35 -12 17 -13 17
-19 1z"/>
<path d="M3922 3168 c-14 -14 -16 -42 -3 -34 7 5 23 46 17 46 -1 0 -7 -5 -14
-12z"/>
<path d="M3877 3123 c-4 -3 -7 -11 -7 -17 0 -6 5 -5 12 2 6 6 9 14 7 17 -3 3
-9 2 -12 -2z"/>
<path d="M4425 3020 c-5 -23 -3 -35 6 -41 17 -11 25 32 11 57 -8 15 -11 12
-17 -16z"/>
<path d="M4560 3020 c0 -5 5 -10 11 -10 5 0 7 5 4 10 -3 6 -8 10 -11 10 -2 0
-4 -4 -4 -10z"/>
<path d="M5980 3002 c0 -9 10 -28 21 -42 l20 -25 -7 25 c-4 14 -7 30 -7 37 0
7 -6 14 -14 17 -8 3 -13 -2 -13 -12z"/>
<path d="M6047 2990 c-3 -11 -1 -20 4 -20 4 0 13 9 19 20 8 16 8 20 -3 20 -8
0 -17 -9 -20 -20z"/>
<path d="M3305 2919 c-11 -16 -1 -19 13 -3 7 8 8 14 3 14 -5 0 -13 -5 -16 -11z"/>
<path d="M3824 2715 c-4 -8 -10 -15 -16 -15 -5 0 -6 6 -2 13 4 6 3 8 -1 4 -16
-14 -5 -90 15 -104 10 -7 21 -24 24 -38 4 -14 11 -25 17 -25 7 0 8 7 4 18 -4
9 -10 29 -13 45 -2 15 -8 27 -13 27 -5 0 -6 20 -2 45 6 44 -2 60 -13 30z"/>
<path d="M4160 2708 c-12 -22 -12 -22 6 -6 10 10 15 20 12 24 -4 3 -12 -5 -18
-18z"/>
<path d="M4270 2625 c0 -18 19 -40 26 -32 4 4 0 15 -9 24 -9 10 -17 13 -17 8z"/>
<path d="M4060 2606 c0 -8 3 -22 6 -31 5 -13 8 -14 15 -3 14 21 10 48 -6 48
-8 0 -15 -6 -15 -14z"/>
<path d="M4232 2600 c0 -14 2 -19 5 -12 2 6 2 18 0 25 -3 6 -5 1 -5 -13z"/>
<path d="M5781 2606 c-7 -8 -11 -35 -10 -60 2 -25 0 -48 -3 -51 -8 -8 25 -74
38 -75 6 0 21 11 33 24 20 21 22 31 16 63 -4 21 -13 45 -20 53 -7 8 -15 24
-16 34 -5 25 -23 31 -38 12z"/>
<path d="M4100 2483 c0 -12 -3 -29 -7 -39 -4 -11 -2 -15 7 -12 15 5 20 41 8
60 -5 9 -8 6 -8 -9z"/>
<path d="M5690 2340 c6 -11 12 -20 14 -20 2 0 2 9 -1 20 -3 11 -9 20 -15 20
-5 0 -4 -9 2 -20z"/>
<path d="M4074 2304 c3 -9 6 -21 6 -27 0 -8 3 -8 11 0 13 13 5 43 -12 43 -6 0
-8 -7 -5 -16z"/>
<path d="M3946 2262 c-3 -20 -6 -50 -6 -67 1 -42 16 -13 24 47 8 55 -9 74 -18
20z"/>
<path d="M4128 2283 c-10 -2 -18 -11 -18 -18 0 -25 18 -25 34 0 17 25 15 26
-16 18z"/>
<path d="M4818 2260 c2 -17 8 -28 12 -25 9 6 2 43 -9 50 -4 2 -5 -9 -3 -25z"/>
<path d="M4023 2251 c-21 -20 -39 -58 -31 -66 6 -7 60 65 56 76 -2 5 -13 1
-25 -10z"/>
<path d="M5617 2263 c-11 -10 -8 -43 3 -43 6 0 10 11 10 25 0 26 -2 29 -13 18z"/>
<path d="M4771 2234 c0 -11 3 -14 6 -6 3 7 2 16 -1 19 -3 4 -6 -2 -5 -13z"/>
<path d="M5531 2184 c0 -11 3 -14 6 -6 3 7 2 16 -1 19 -3 4 -6 -2 -5 -13z"/>
<path d="M4854 2146 c1 -19 4 -32 9 -29 9 6 9 35 -1 51 -5 8 -8 -1 -8 -22z"/>
<path d="M4030 2139 c0 -5 5 -7 10 -4 6 3 10 8 10 11 0 2 -4 4 -10 4 -5 0 -10
-5 -10 -11z"/>
<path d="M4730 2130 c0 -11 4 -20 9 -20 5 0 7 9 4 20 -3 11 -7 20 -9 20 -2 0
-4 -9 -4 -20z"/>
<path d="M4211 2080 c0 -45 3 -59 9 -45 12 27 12 77 0 95 -7 10 -10 -5 -9 -50z"/>
<path d="M3960 2105 c7 -9 15 -13 17 -11 7 7 -7 26 -19 26 -6 0 -6 -6 2 -15z"/>
<path d="M5307 2034 c-19 -20 4 -104 30 -104 7 0 13 11 13 25 0 14 0 28 0 33
0 4 -5 7 -12 7 -7 0 -15 10 -18 23 -3 13 -8 20 -13 16z"/>
<path d="M5033 1286 c4 -13 9 -36 13 -52 4 -16 14 -39 22 -52 14 -21 16 -22
33 -6 18 16 19 16 19 0 0 -10 5 -14 11 -11 6 4 8 13 5 21 -3 8 1 14 9 14 8 0
15 -7 15 -15 0 -8 5 -15 10 -15 6 0 10 4 10 9 0 14 -108 114 -132 124 -18 6
-20 4 -15 -17z"/>
<path d="M3920 460 c0 -5 5 -10 10 -10 6 0 10 5 10 10 0 6 -4 10 -10 10 -5 0
-10 -4 -10 -10z"/>
<path d="M5431 104 c0 -11 3 -14 6 -6 3 7 2 16 -1 19 -3 4 -6 -2 -5 -13z"/>
</g>
</svg>
